<svg width="433" height="281" viewBox="0 0 433 281" fill="none" xmlns="http://www.w3.org/2000/svg">
<rect x="97.5" y="88.5" width="53" height="53" stroke="#E0E0E0"/>
<path d="M108.822 121.896C107.382 120.384 106.722 118.38 106.722 116.292C106.722 114.18 107.382 112.152 108.822 110.592H109.818C108.474 112.212 107.79 114.228 107.79 116.28C107.79 118.296 108.486 120.276 109.806 121.896H108.822ZM110.179 120L113.527 111.396H114.499L117.835 120H116.719L115.687 117.348H112.291L111.271 120H110.179ZM112.651 116.388H115.363L114.403 113.796C114.331 113.604 114.079 112.812 113.995 112.512C113.875 113.004 113.719 113.52 113.623 113.796L112.651 116.388ZM119.78 122V118.407C119.78 117.997 119.787 117.795 119.809 117.522C119.658 117.666 119.55 117.759 119.363 117.918L118.815 118.364L118.484 117.939L119.874 116.859H120.399V122H119.78ZM122.672 121.548C122.9 120.636 123.152 119.448 123.272 118.608H124.4L124.484 118.74C124.268 119.592 123.836 120.684 123.452 121.548H122.672ZM127.827 120L125.391 113.568H126.519L127.887 117.36C128.079 117.888 128.331 118.668 128.403 119.064H128.451C128.535 118.668 128.811 117.876 128.991 117.36L130.359 113.568H131.487L129.039 120H127.827ZM133.421 122V118.407C133.421 117.997 133.428 117.795 133.45 117.522C133.299 117.666 133.191 117.759 133.004 117.918L132.456 118.364L132.125 117.939L133.515 116.859H134.04V122H133.421ZM136.193 121.896C137.513 120.276 138.209 118.296 138.209 116.28C138.209 114.228 137.525 112.212 136.181 110.592H137.177C138.617 112.152 139.277 114.18 139.277 116.292C139.277 118.38 138.617 120.384 137.177 121.896H136.193Z" fill="#E0E0E0"/>
<rect x="150.5" y="88.5" width="53" height="53" stroke="#E0E0E0"/>
<path d="M161.822 121.896C160.382 120.384 159.722 118.38 159.722 116.292C159.722 114.18 160.382 112.152 161.822 110.592H162.818C161.474 112.212 160.79 114.228 160.79 116.28C160.79 118.296 161.486 120.276 162.806 121.896H161.822ZM163.179 120L166.527 111.396H167.499L170.835 120H169.719L168.687 117.348H165.291L164.271 120H163.179ZM165.651 116.388H168.363L167.403 113.796C167.331 113.604 167.079 112.812 166.995 112.512C166.875 113.004 166.719 113.52 166.623 113.796L165.651 116.388ZM171.189 122V121.474L172.535 120.114C173.306 119.336 173.731 118.89 173.731 118.191C173.731 117.63 173.363 117.327 172.823 117.327C172.319 117.327 171.981 117.507 171.585 117.817L171.247 117.392C171.65 117.054 172.168 116.787 172.823 116.787C173.781 116.787 174.379 117.306 174.379 118.155C174.379 118.962 173.846 119.559 173.061 120.337L171.988 121.395V121.424H174.587V122H171.189ZM175.672 121.548C175.9 120.636 176.152 119.448 176.272 118.608H177.4L177.484 118.74C177.268 119.592 176.836 120.684 176.452 121.548H175.672ZM180.827 120L178.391 113.568H179.519L180.887 117.36C181.079 117.888 181.331 118.668 181.403 119.064H181.451C181.535 118.668 181.811 117.876 181.991 117.36L183.359 113.568H184.487L182.039 120H180.827ZM184.83 122V121.474L186.176 120.114C186.947 119.336 187.372 118.89 187.372 118.191C187.372 117.63 187.004 117.327 186.464 117.327C185.96 117.327 185.622 117.507 185.226 117.817L184.888 117.392C185.291 117.054 185.809 116.787 186.464 116.787C187.422 116.787 188.02 117.306 188.02 118.155C188.02 118.962 187.487 119.559 186.702 120.337L185.629 121.395V121.424H188.228V122H184.83ZM189.193 121.896C190.513 120.276 191.209 118.296 191.209 116.28C191.209 114.228 190.525 112.212 189.181 110.592H190.177C191.617 112.152 192.277 114.18 192.277 116.292C192.277 118.38 191.617 120.384 190.177 121.896H189.193Z" fill="#E0E0E0"/>
<rect x="150.5" y="141.5" width="53" height="53" stroke="#E0E0E0"/>
<path d="M161.822 174.896C160.382 173.384 159.722 171.38 159.722 169.292C159.722 167.18 160.382 165.152 161.822 163.592H162.818C161.474 165.212 160.79 167.228 160.79 169.28C160.79 171.296 161.486 173.276 162.806 174.896H161.822ZM163.179 173L166.527 164.396H167.499L170.835 173H169.719L168.687 170.348H165.291L164.271 173H163.179ZM165.651 169.388H168.363L167.403 166.796C167.331 166.604 167.079 165.812 166.995 165.512C166.875 166.004 166.719 166.52 166.623 166.796L165.651 169.388ZM171.189 175V174.474L172.535 173.114C173.306 172.336 173.731 171.89 173.731 171.191C173.731 170.63 173.363 170.327 172.823 170.327C172.319 170.327 171.981 170.507 171.585 170.817L171.247 170.392C171.65 170.054 172.168 169.787 172.823 169.787C173.781 169.787 174.379 170.306 174.379 171.155C174.379 171.962 173.846 172.559 173.061 173.337L171.988 174.395V174.424H174.587V175H171.189ZM175.672 174.548C175.9 173.636 176.152 172.448 176.272 171.608H177.4L177.484 171.74C177.268 172.592 176.836 173.684 176.452 174.548H175.672ZM180.827 173L178.391 166.568H179.519L180.887 170.36C181.079 170.888 181.331 171.668 181.403 172.064H181.451C181.535 171.668 181.811 170.876 181.991 170.36L183.359 166.568H184.487L182.039 173H180.827ZM184.83 175V174.474L186.176 173.114C186.947 172.336 187.372 171.89 187.372 171.191C187.372 170.63 187.004 170.327 186.464 170.327C185.96 170.327 185.622 170.507 185.226 170.817L184.888 170.392C185.291 170.054 185.809 169.787 186.464 169.787C187.422 169.787 188.02 170.306 188.02 171.155C188.02 171.962 187.487 172.559 186.702 173.337L185.629 174.395V174.424H188.228V175H184.83ZM189.193 174.896C190.513 173.276 191.209 171.296 191.209 169.28C191.209 167.228 190.525 165.212 189.181 163.592H190.177C191.617 165.152 192.277 167.18 192.277 169.292C192.277 171.38 191.617 173.384 190.177 174.896H189.193Z" fill="#E0E0E0"/>
<rect x="150.5" y="194.5" width="53" height="53" stroke="#E0E0E0"/>
<path d="M161.822 227.896C160.382 226.384 159.722 224.38 159.722 222.292C159.722 220.18 160.382 218.152 161.822 216.592H162.818C161.474 218.212 160.79 220.228 160.79 222.28C160.79 224.296 161.486 226.276 162.806 227.896H161.822ZM163.179 226L166.527 217.396H167.499L170.835 226H169.719L168.687 223.348H165.291L164.271 226H163.179ZM165.651 222.388H168.363L167.403 219.796C167.331 219.604 167.079 218.812 166.995 218.512C166.875 219.004 166.719 219.52 166.623 219.796L165.651 222.388ZM171.189 228V227.474L172.535 226.114C173.306 225.336 173.731 224.89 173.731 224.191C173.731 223.63 173.363 223.327 172.823 223.327C172.319 223.327 171.981 223.507 171.585 223.817L171.247 223.392C171.65 223.054 172.168 222.787 172.823 222.787C173.781 222.787 174.379 223.306 174.379 224.155C174.379 224.962 173.846 225.559 173.061 226.337L171.988 227.395V227.424H174.587V228H171.189ZM175.672 227.548C175.9 226.636 176.152 225.448 176.272 224.608H177.4L177.484 224.74C177.268 225.592 176.836 226.684 176.452 227.548H175.672ZM180.827 226L178.391 219.568H179.519L180.887 223.36C181.079 223.888 181.331 224.668 181.403 225.064H181.451C181.535 224.668 181.811 223.876 181.991 223.36L183.359 219.568H184.487L182.039 226H180.827ZM184.83 228V227.474L186.176 226.114C186.947 225.336 187.372 224.89 187.372 224.191C187.372 223.63 187.004 223.327 186.464 223.327C185.96 223.327 185.622 223.507 185.226 223.817L184.888 223.392C185.291 223.054 185.809 222.787 186.464 222.787C187.422 222.787 188.02 223.306 188.02 224.155C188.02 224.962 187.487 225.559 186.702 226.337L185.629 227.395V227.424H188.228V228H184.83ZM189.193 227.896C190.513 226.276 191.209 224.296 191.209 222.28C191.209 220.228 190.525 218.212 189.181 216.592H190.177C191.617 218.152 192.277 220.18 192.277 222.292C192.277 224.38 191.617 226.384 190.177 227.896H189.193Z" fill="#E0E0E0"/>
<rect x="203.5" y="88.5" width="53" height="53" stroke="#E0E0E0"/>
<path d="M214.822 121.896C213.382 120.384 212.722 118.38 212.722 116.292C212.722 114.18 213.382 112.152 214.822 110.592H215.818C214.474 112.212 213.79 114.228 213.79 116.28C213.79 118.296 214.486 120.276 215.806 121.896H214.822ZM216.179 120L219.527 111.396H220.499L223.835 120H222.719L221.687 117.348H218.291L217.271 120H216.179ZM218.651 116.388H221.363L220.403 113.796C220.331 113.604 220.079 112.812 219.995 112.512C219.875 113.004 219.719 113.52 219.623 113.796L218.651 116.388ZM225.579 122.072C225.039 122.072 224.592 122 224.167 121.791V121.201C224.599 121.417 225.125 121.539 225.586 121.539C226.507 121.539 226.889 121.158 226.889 120.524C226.889 119.883 226.356 119.617 225.449 119.617H224.952V119.077H225.456C226.299 119.077 226.745 118.688 226.745 118.105C226.745 117.608 226.385 117.32 225.809 117.32C225.255 117.32 224.895 117.5 224.513 117.752L224.196 117.32C224.563 117.032 225.111 116.787 225.802 116.787C226.875 116.787 227.393 117.327 227.393 118.062C227.393 118.753 226.975 119.163 226.327 119.293V119.322C227.148 119.422 227.551 119.862 227.551 120.538C227.551 121.438 226.939 122.072 225.579 122.072ZM228.672 121.548C228.9 120.636 229.152 119.448 229.272 118.608H230.4L230.484 118.74C230.268 119.592 229.836 120.684 229.452 121.548H228.672ZM233.827 120L231.391 113.568H232.519L233.887 117.36C234.079 117.888 234.331 118.668 234.403 119.064H234.451C234.535 118.668 234.811 117.876 234.991 117.36L236.359 113.568H237.487L235.039 120H233.827ZM239.22 122.072C238.68 122.072 238.233 122 237.808 121.791V121.201C238.24 121.417 238.766 121.539 239.227 121.539C240.148 121.539 240.53 121.158 240.53 120.524C240.53 119.883 239.997 119.617 239.09 119.617H238.593V119.077H239.097C239.94 119.077 240.386 118.688 240.386 118.105C240.386 117.608 240.026 117.32 239.45 117.32C238.896 117.32 238.536 117.5 238.154 117.752L237.837 117.32C238.204 117.032 238.752 116.787 239.443 116.787C240.516 116.787 241.034 117.327 241.034 118.062C241.034 118.753 240.616 119.163 239.968 119.293V119.322C240.789 119.422 241.192 119.862 241.192 120.538C241.192 121.438 240.58 122.072 239.22 122.072ZM242.193 121.896C243.513 120.276 244.209 118.296 244.209 116.28C244.209 114.228 243.525 112.212 242.181 110.592H243.177C244.617 112.152 245.277 114.18 245.277 116.292C245.277 118.38 244.617 120.384 243.177 121.896H242.193Z" fill="#E0E0E0"/>
<rect x="256.5" y="88.5" width="53" height="53" stroke="#E0E0E0"/>
<path d="M267.822 121.896C266.382 120.384 265.722 118.38 265.722 116.292C265.722 114.18 266.382 112.152 267.822 110.592H268.818C267.474 112.212 266.79 114.228 266.79 116.28C266.79 118.296 267.486 120.276 268.806 121.896H267.822ZM269.179 120L272.527 111.396H273.499L276.835 120H275.719L274.687 117.348H271.291L270.271 120H269.179ZM271.651 116.388H274.363L273.403 113.796C273.331 113.604 273.079 112.812 272.995 112.512C272.875 113.004 272.719 113.52 272.623 113.796L271.651 116.388ZM279.457 122V120.834H276.995V120.294L279.414 116.83H280.069V120.265H280.818V120.834H280.069V122H279.457ZM277.614 120.265H279.457V118.645C279.457 118.148 279.471 117.824 279.493 117.507H279.464C279.385 117.687 279.255 117.925 279.155 118.069L277.614 120.265ZM281.672 121.548C281.9 120.636 282.152 119.448 282.272 118.608H283.4L283.484 118.74C283.268 119.592 282.836 120.684 282.452 121.548H281.672ZM286.827 120L284.391 113.568H285.519L286.887 117.36C287.079 117.888 287.331 118.668 287.403 119.064H287.451C287.535 118.668 287.811 117.876 287.991 117.36L289.359 113.568H290.487L288.039 120H286.827ZM293.098 122V120.834H290.636V120.294L293.055 116.83H293.71V120.265H294.459V120.834H293.71V122H293.098ZM291.255 120.265H293.098V118.645C293.098 118.148 293.112 117.824 293.134 117.507H293.105C293.026 117.687 292.896 117.925 292.796 118.069L291.255 120.265ZM295.193 121.896C296.513 120.276 297.209 118.296 297.209 116.28C297.209 114.228 296.525 112.212 295.181 110.592H296.177C297.617 112.152 298.277 114.18 298.277 116.292C298.277 118.38 297.617 120.384 296.177 121.896H295.193Z" fill="#E0E0E0"/>
<path d="M331.964 66.12C331.004 66.12 330.152 65.976 329.612 65.712V64.68C330.188 64.932 331.1 65.184 332.012 65.184C333.284 65.184 333.944 64.656 333.944 63.804C333.944 62.964 333.476 62.604 331.928 62.04C330.464 61.512 329.72 60.828 329.72 59.496C329.72 58.14 330.836 57.312 332.456 57.312C333.392 57.312 334.172 57.504 334.82 57.792L334.484 58.716C333.884 58.464 333.176 58.26 332.432 58.26C331.364 58.26 330.812 58.764 330.812 59.508C330.812 60.372 331.292 60.72 332.684 61.236C334.196 61.8 335.024 62.364 335.024 63.708C335.024 65.232 333.836 66.12 331.964 66.12ZM339.186 66.12C337.47 66.12 336.246 65.1 336.246 62.82C336.246 60.444 337.53 59.448 339.258 59.448C339.906 59.448 340.566 59.604 340.95 59.796L340.626 60.672C340.242 60.528 339.678 60.372 339.234 60.372C337.95 60.372 337.338 61.2 337.338 62.808C337.338 64.356 337.962 65.208 339.174 65.208C339.87 65.208 340.398 65.04 340.842 64.836V65.772C340.41 66 339.918 66.12 339.186 66.12ZM342.372 66V56.88H343.428V59.556C343.428 59.868 343.404 60.204 343.368 60.456H343.44C343.848 59.796 344.616 59.46 345.444 59.46C347.004 59.46 347.796 60.168 347.796 61.812V66H346.752V61.884C346.752 60.852 346.296 60.336 345.312 60.336C343.872 60.336 343.428 61.176 343.428 62.676V66H342.372ZM352.526 66.12C350.69 66.12 349.43 64.98 349.43 62.832C349.43 60.72 350.57 59.448 352.274 59.448C353.918 59.448 354.926 60.6 354.926 62.352V62.988H350.522C350.558 64.44 351.29 65.22 352.574 65.22C353.39 65.22 353.966 65.064 354.638 64.776V65.7C353.978 65.988 353.402 66.12 352.526 66.12ZM350.546 62.148H353.822C353.822 61.056 353.33 60.312 352.262 60.312C351.254 60.312 350.654 60.996 350.546 62.148ZM356.563 66V59.568H357.415L357.571 60.444H357.631C358.027 59.772 358.759 59.448 359.527 59.448C360.511 59.448 361.183 59.796 361.495 60.528H361.555C361.987 59.796 362.779 59.448 363.619 59.448C365.071 59.448 365.791 60.156 365.791 61.812V66H364.747V61.86C364.747 60.852 364.327 60.336 363.439 60.336C362.191 60.336 361.699 61.08 361.699 62.448V66H360.655V61.86C360.655 60.852 360.235 60.336 359.335 60.336C358.039 60.336 357.619 61.164 357.619 62.664V66H356.563ZM370.514 66.12C368.678 66.12 367.418 64.98 367.418 62.832C367.418 60.72 368.558 59.448 370.262 59.448C371.906 59.448 372.914 60.6 372.914 62.352V62.988H368.51C368.546 64.44 369.278 65.22 370.562 65.22C371.378 65.22 371.954 65.064 372.626 64.776V65.7C371.966 65.988 371.39 66.12 370.514 66.12ZM368.534 62.148H371.81C371.81 61.056 371.318 60.312 370.25 60.312C369.242 60.312 368.642 60.996 368.534 62.148ZM376.768 67.896L380.98 56.592H382.012L377.8 67.896H376.768ZM386.414 66V57.432H387.494V61.056H391.886V57.432H392.966V66H391.886V62.004H387.494V66H386.414ZM397.901 66.12C396.065 66.12 394.805 64.98 394.805 62.832C394.805 60.72 395.945 59.448 397.649 59.448C399.293 59.448 400.301 60.6 400.301 62.352V62.988H395.897C395.933 64.44 396.665 65.22 397.949 65.22C398.765 65.22 399.341 65.064 400.013 64.776V65.7C399.353 65.988 398.777 66.12 397.901 66.12ZM395.921 62.148H399.197C399.197 61.056 398.705 60.312 397.637 60.312C396.629 60.312 396.029 60.996 395.921 62.148ZM403.498 66.12C402.334 66.12 401.47 65.52 401.47 64.212C401.47 62.928 402.454 62.22 404.554 62.16L405.646 62.124V61.74C405.646 60.672 405.154 60.312 404.314 60.312C403.642 60.312 403.03 60.552 402.502 60.804L402.178 60.012C402.742 59.712 403.534 59.46 404.374 59.46C405.934 59.46 406.678 60.12 406.678 61.62V66H405.91L405.706 65.088H405.658C405.094 65.796 404.578 66.12 403.498 66.12ZM403.738 65.268C404.818 65.268 405.634 64.68 405.634 63.432V62.856L404.686 62.892C403.078 62.952 402.562 63.408 402.562 64.224C402.562 64.944 403.042 65.268 403.738 65.268ZM410.945 66.12C409.349 66.12 408.305 65.004 408.305 62.796C408.305 60.588 409.361 59.448 410.957 59.448C411.953 59.448 412.553 59.868 412.949 60.396H413.021C412.997 60.192 412.949 59.688 412.949 59.448V56.88H414.005V66H413.153L412.997 65.136H412.949C412.565 65.688 411.953 66.12 410.945 66.12ZM411.113 65.244C412.469 65.244 412.961 64.5 412.961 63V62.808C412.961 61.212 412.529 60.324 411.101 60.324C409.961 60.324 409.397 61.296 409.397 62.82C409.397 64.356 409.961 65.244 411.113 65.244ZM416.587 58.5C416.239 58.5 415.963 58.284 415.963 57.828C415.963 57.36 416.239 57.156 416.587 57.156C416.911 57.156 417.199 57.36 417.199 57.828C417.199 58.284 416.911 58.5 416.587 58.5ZM416.047 66V59.568H417.103V66H416.047ZM419.141 66V59.568H419.993L420.149 60.444H420.209C420.629 59.772 421.421 59.448 422.237 59.448C423.773 59.448 424.565 60.156 424.565 61.812V66H423.521V61.884C423.521 60.852 423.065 60.336 422.081 60.336C420.653 60.336 420.197 61.164 420.197 62.664V66H419.141ZM429.019 68.88C428.083 68.88 427.315 68.748 426.703 68.472V67.5C427.315 67.824 428.155 68.004 429.079 68.004C430.183 68.004 430.855 67.32 430.855 66.192V65.94C430.855 65.748 430.879 65.292 430.891 65.148H430.843C430.399 65.808 429.727 66.12 428.851 66.12C427.183 66.12 426.199 64.896 426.199 62.796C426.199 60.744 427.183 59.448 428.839 59.448C429.679 59.448 430.375 59.76 430.855 60.42H430.915L431.059 59.568H431.899V66.108C431.899 67.944 430.987 68.88 429.019 68.88ZM429.007 65.256C430.303 65.256 430.867 64.596 430.867 63.048V62.796C430.867 61.044 430.279 60.336 428.983 60.336C427.903 60.336 427.291 61.224 427.291 62.808C427.291 64.392 427.879 65.256 429.007 65.256Z" fill="#E0E0E0"/>
<path d="M343 181.836L334.432 181.836L334.432 179.388C334.432 177.252 334.996 176.136 336.556 176.136C337.564 176.136 338.26 176.712 338.452 177.768L338.512 177.768C338.692 176.688 339.232 175.848 340.564 175.848C342.124 175.848 343 176.988 343 178.824L343 181.836ZM338.08 180.756L338.08 179.172C338.08 177.708 337.6 177.252 336.676 177.252C335.74 177.252 335.356 177.888 335.356 179.34L335.356 180.756L338.08 180.756ZM342.088 180.756L342.088 179.028C342.088 177.516 341.44 177 340.48 177C339.58 177 338.98 177.528 338.98 179.112L338.98 180.756L342.088 180.756ZM343.12 171.583C343.12 173.287 341.908 174.535 339.772 174.535C337.648 174.535 336.448 173.395 336.448 171.547C336.448 169.807 337.648 168.583 339.772 168.583C341.908 168.583 343.12 169.747 343.12 171.583ZM342.244 171.559C342.244 170.263 341.296 169.675 339.772 169.675C338.248 169.675 337.336 170.263 337.336 171.571C337.336 172.879 338.248 173.443 339.772 173.443C341.296 173.443 342.244 172.867 342.244 171.559ZM343.12 164.63C343.12 166.226 342.004 167.27 339.796 167.27C337.588 167.27 336.448 166.214 336.448 164.618C336.448 163.622 336.868 163.022 337.396 162.626L337.396 162.554C337.192 162.578 336.688 162.626 336.448 162.626L333.88 162.626L333.88 161.57L343 161.57L343 162.422L342.136 162.578L342.136 162.626C342.688 163.01 343.12 163.622 343.12 164.63ZM342.244 164.462C342.244 163.106 341.5 162.614 340 162.614L339.808 162.614C338.212 162.614 337.324 163.046 337.324 164.474C337.324 165.614 338.296 166.178 339.82 166.178C341.356 166.178 342.244 165.614 342.244 164.462ZM345.88 159.539C345.88 159.923 345.832 160.211 345.784 160.415L344.944 160.415C344.98 160.247 345.016 159.983 345.016 159.707C345.016 158.975 344.56 158.555 343.876 158.279L343.024 157.943L336.568 160.535L336.568 159.407L340.228 158.015C340.876 157.775 341.452 157.571 341.98 157.475L341.98 157.427C341.584 157.331 340.876 157.115 340.216 156.875L336.568 155.567L336.568 154.427L343.888 157.199C345.1 157.655 345.88 158.291 345.88 159.539Z" fill="#E0E0E0"/>
<rect x="203.5" y="141.5" width="53" height="53" stroke="#E0E0E0"/>
<path d="M214.822 174.896C213.382 173.384 212.722 171.38 212.722 169.292C212.722 167.18 213.382 165.152 214.822 163.592H215.818C214.474 165.212 213.79 167.228 213.79 169.28C213.79 171.296 214.486 173.276 215.806 174.896H214.822ZM216.179 173L219.527 164.396H220.499L223.835 173H222.719L221.687 170.348H218.291L217.271 173H216.179ZM218.651 169.388H221.363L220.403 166.796C220.331 166.604 220.079 165.812 219.995 165.512C219.875 166.004 219.719 166.52 219.623 166.796L218.651 169.388ZM225.579 175.072C225.039 175.072 224.592 175 224.167 174.791V174.201C224.599 174.417 225.125 174.539 225.586 174.539C226.507 174.539 226.889 174.158 226.889 173.524C226.889 172.883 226.356 172.617 225.449 172.617H224.952V172.077H225.456C226.299 172.077 226.745 171.688 226.745 171.105C226.745 170.608 226.385 170.32 225.809 170.32C225.255 170.32 224.895 170.5 224.513 170.752L224.196 170.32C224.563 170.032 225.111 169.787 225.802 169.787C226.875 169.787 227.393 170.327 227.393 171.062C227.393 171.753 226.975 172.163 226.327 172.293V172.322C227.148 172.422 227.551 172.862 227.551 173.538C227.551 174.438 226.939 175.072 225.579 175.072ZM228.672 174.548C228.9 173.636 229.152 172.448 229.272 171.608H230.4L230.484 171.74C230.268 172.592 229.836 173.684 229.452 174.548H228.672ZM233.827 173L231.391 166.568H232.519L233.887 170.36C234.079 170.888 234.331 171.668 234.403 172.064H234.451C234.535 171.668 234.811 170.876 234.991 170.36L236.359 166.568H237.487L235.039 173H233.827ZM239.22 175.072C238.68 175.072 238.233 175 237.808 174.791V174.201C238.24 174.417 238.766 174.539 239.227 174.539C240.148 174.539 240.53 174.158 240.53 173.524C240.53 172.883 239.997 172.617 239.09 172.617H238.593V172.077H239.097C239.94 172.077 240.386 171.688 240.386 171.105C240.386 170.608 240.026 170.32 239.45 170.32C238.896 170.32 238.536 170.5 238.154 170.752L237.837 170.32C238.204 170.032 238.752 169.787 239.443 169.787C240.516 169.787 241.034 170.327 241.034 171.062C241.034 171.753 240.616 172.163 239.968 172.293V172.322C240.789 172.422 241.192 172.862 241.192 173.538C241.192 174.438 240.58 175.072 239.22 175.072ZM242.193 174.896C243.513 173.276 244.209 171.296 244.209 169.28C244.209 167.228 243.525 165.212 242.181 163.592H243.177C244.617 165.152 245.277 167.18 245.277 169.292C245.277 171.38 244.617 173.384 243.177 174.896H242.193Z" fill="#E0E0E0"/>
<rect x="256.5" y="141.5" width="53" height="53" stroke="#E0E0E0"/>
<path d="M267.822 174.896C266.382 173.384 265.722 171.38 265.722 169.292C265.722 167.18 266.382 165.152 267.822 163.592H268.818C267.474 165.212 266.79 167.228 266.79 169.28C266.79 171.296 267.486 173.276 268.806 174.896H267.822ZM269.179 173L272.527 164.396H273.499L276.835 173H275.719L274.687 170.348H271.291L270.271 173H269.179ZM271.651 169.388H274.363L273.403 166.796C273.331 166.604 273.079 165.812 272.995 165.512C272.875 166.004 272.719 166.52 272.623 166.796L271.651 169.388ZM279.457 175V173.834H276.995V173.294L279.414 169.83H280.069V173.265H280.818V173.834H280.069V175H279.457ZM277.614 173.265H279.457V171.645C279.457 171.148 279.471 170.824 279.493 170.507H279.464C279.385 170.687 279.255 170.925 279.155 171.069L277.614 173.265ZM281.672 174.548C281.9 173.636 282.152 172.448 282.272 171.608H283.4L283.484 171.74C283.268 172.592 282.836 173.684 282.452 174.548H281.672ZM286.827 173L284.391 166.568H285.519L286.887 170.36C287.079 170.888 287.331 171.668 287.403 172.064H287.451C287.535 171.668 287.811 170.876 287.991 170.36L289.359 166.568H290.487L288.039 173H286.827ZM293.098 175V173.834H290.636V173.294L293.055 169.83H293.71V173.265H294.459V173.834H293.71V175H293.098ZM291.255 173.265H293.098V171.645C293.098 171.148 293.112 170.824 293.134 170.507H293.105C293.026 170.687 292.896 170.925 292.796 171.069L291.255 173.265ZM295.193 174.896C296.513 173.276 297.209 171.296 297.209 169.28C297.209 167.228 296.525 165.212 295.181 163.592H296.177C297.617 165.152 298.277 167.18 298.277 169.292C298.277 171.38 297.617 173.384 296.177 174.896H295.193Z" fill="#E0E0E0"/>
<rect x="203.5" y="194.5" width="53" height="53" stroke="#E0E0E0"/>
<path d="M214.822 227.896C213.382 226.384 212.722 224.38 212.722 222.292C212.722 220.18 213.382 218.152 214.822 216.592H215.818C214.474 218.212 213.79 220.228 213.79 222.28C213.79 224.296 214.486 226.276 215.806 227.896H214.822ZM216.179 226L219.527 217.396H220.499L223.835 226H222.719L221.687 223.348H218.291L217.271 226H216.179ZM218.651 222.388H221.363L220.403 219.796C220.331 219.604 220.079 218.812 219.995 218.512C219.875 219.004 219.719 219.52 219.623 219.796L218.651 222.388ZM225.579 228.072C225.039 228.072 224.592 228 224.167 227.791V227.201C224.599 227.417 225.125 227.539 225.586 227.539C226.507 227.539 226.889 227.158 226.889 226.524C226.889 225.883 226.356 225.617 225.449 225.617H224.952V225.077H225.456C226.299 225.077 226.745 224.688 226.745 224.105C226.745 223.608 226.385 223.32 225.809 223.32C225.255 223.32 224.895 223.5 224.513 223.752L224.196 223.32C224.563 223.032 225.111 222.787 225.802 222.787C226.875 222.787 227.393 223.327 227.393 224.062C227.393 224.753 226.975 225.163 226.327 225.293V225.322C227.148 225.422 227.551 225.862 227.551 226.538C227.551 227.438 226.939 228.072 225.579 228.072ZM228.672 227.548C228.9 226.636 229.152 225.448 229.272 224.608H230.4L230.484 224.74C230.268 225.592 229.836 226.684 229.452 227.548H228.672ZM233.827 226L231.391 219.568H232.519L233.887 223.36C234.079 223.888 234.331 224.668 234.403 225.064H234.451C234.535 224.668 234.811 223.876 234.991 223.36L236.359 219.568H237.487L235.039 226H233.827ZM239.22 228.072C238.68 228.072 238.233 228 237.808 227.791V227.201C238.24 227.417 238.766 227.539 239.227 227.539C240.148 227.539 240.53 227.158 240.53 226.524C240.53 225.883 239.997 225.617 239.09 225.617H238.593V225.077H239.097C239.94 225.077 240.386 224.688 240.386 224.105C240.386 223.608 240.026 223.32 239.45 223.32C238.896 223.32 238.536 223.5 238.154 223.752L237.837 223.32C238.204 223.032 238.752 222.787 239.443 222.787C240.516 222.787 241.034 223.327 241.034 224.062C241.034 224.753 240.616 225.163 239.968 225.293V225.322C240.789 225.422 241.192 225.862 241.192 226.538C241.192 227.438 240.58 228.072 239.22 228.072ZM242.193 227.896C243.513 226.276 244.209 224.296 244.209 222.28C244.209 220.228 243.525 218.212 242.181 216.592H243.177C244.617 218.152 245.277 220.18 245.277 222.292C245.277 224.38 244.617 226.384 243.177 227.896H242.193Z" fill="#E0E0E0"/>
<rect x="256.5" y="194.5" width="53" height="53" stroke="#E0E0E0"/>
<path d="M267.822 227.896C266.382 226.384 265.722 224.38 265.722 222.292C265.722 220.18 266.382 218.152 267.822 216.592H268.818C267.474 218.212 266.79 220.228 266.79 222.28C266.79 224.296 267.486 226.276 268.806 227.896H267.822ZM269.179 226L272.527 217.396H273.499L276.835 226H275.719L274.687 223.348H271.291L270.271 226H269.179ZM271.651 222.388H274.363L273.403 219.796C273.331 219.604 273.079 218.812 272.995 218.512C272.875 219.004 272.719 219.52 272.623 219.796L271.651 222.388ZM279.457 228V226.834H276.995V226.294L279.414 222.83H280.069V226.265H280.818V226.834H280.069V228H279.457ZM277.614 226.265H279.457V224.645C279.457 224.148 279.471 223.824 279.493 223.507H279.464C279.385 223.687 279.255 223.925 279.155 224.069L277.614 226.265ZM281.672 227.548C281.9 226.636 282.152 225.448 282.272 224.608H283.4L283.484 224.74C283.268 225.592 282.836 226.684 282.452 227.548H281.672ZM286.827 226L284.391 219.568H285.519L286.887 223.36C287.079 223.888 287.331 224.668 287.403 225.064H287.451C287.535 224.668 287.811 223.876 287.991 223.36L289.359 219.568H290.487L288.039 226H286.827ZM293.098 228V226.834H290.636V226.294L293.055 222.83H293.71V226.265H294.459V226.834H293.71V228H293.098ZM291.255 226.265H293.098V224.645C293.098 224.148 293.112 223.824 293.134 223.507H293.105C293.026 223.687 292.896 223.925 292.796 224.069L291.255 226.265ZM295.193 227.896C296.513 226.276 297.209 224.296 297.209 222.28C297.209 220.228 296.525 218.212 295.181 216.592H296.177C297.617 218.152 298.277 220.18 298.277 222.292C298.277 224.38 297.617 226.384 296.177 227.896H295.193Z" fill="#E0E0E0"/>
<rect x="97.5" y="141.5" width="53" height="53" stroke="#E0E0E0"/>
<path d="M108.822 174.896C107.382 173.384 106.722 171.38 106.722 169.292C106.722 167.18 107.382 165.152 108.822 163.592H109.818C108.474 165.212 107.79 167.228 107.79 169.28C107.79 171.296 108.486 173.276 109.806 174.896H108.822ZM110.179 173L113.527 164.396H114.499L117.835 173H116.719L115.687 170.348H112.291L111.271 173H110.179ZM112.651 169.388H115.363L114.403 166.796C114.331 166.604 114.079 165.812 113.995 165.512C113.875 166.004 113.719 166.52 113.623 166.796L112.651 169.388ZM119.78 175V171.407C119.78 170.997 119.787 170.795 119.809 170.522C119.658 170.666 119.55 170.759 119.363 170.918L118.815 171.364L118.484 170.939L119.874 169.859H120.399V175H119.78ZM122.672 174.548C122.9 173.636 123.152 172.448 123.272 171.608H124.4L124.484 171.74C124.268 172.592 123.836 173.684 123.452 174.548H122.672ZM127.827 173L125.391 166.568H126.519L127.887 170.36C128.079 170.888 128.331 171.668 128.403 172.064H128.451C128.535 171.668 128.811 170.876 128.991 170.36L130.359 166.568H131.487L129.039 173H127.827ZM133.421 175V171.407C133.421 170.997 133.428 170.795 133.45 170.522C133.299 170.666 133.191 170.759 133.004 170.918L132.456 171.364L132.125 170.939L133.515 169.859H134.04V175H133.421ZM136.193 174.896C137.513 173.276 138.209 171.296 138.209 169.28C138.209 167.228 137.525 165.212 136.181 163.592H137.177C138.617 165.152 139.277 167.18 139.277 169.292C139.277 171.38 138.617 173.384 137.177 174.896H136.193Z" fill="#E0E0E0"/>
<rect x="97.5" y="194.5" width="53" height="53" fill="#153614"/>
<rect x="97.5" y="194.5" width="53" height="53" stroke="#E0E0E0"/>
<path d="M108.822 227.896C107.382 226.384 106.722 224.38 106.722 222.292C106.722 220.18 107.382 218.152 108.822 216.592H109.818C108.474 218.212 107.79 220.228 107.79 222.28C107.79 224.296 108.486 226.276 109.806 227.896H108.822ZM110.179 226L113.527 217.396H114.499L117.835 226H116.719L115.687 223.348H112.291L111.271 226H110.179ZM112.651 222.388H115.363L114.403 219.796C114.331 219.604 114.079 218.812 113.995 218.512C113.875 219.004 113.719 219.52 113.623 219.796L112.651 222.388ZM119.78 228V224.407C119.78 223.997 119.787 223.795 119.809 223.522C119.658 223.666 119.55 223.759 119.363 223.918L118.815 224.364L118.484 223.939L119.874 222.859H120.399V228H119.78ZM122.672 227.548C122.9 226.636 123.152 225.448 123.272 224.608H124.4L124.484 224.74C124.268 225.592 123.836 226.684 123.452 227.548H122.672ZM127.827 226L125.391 219.568H126.519L127.887 223.36C128.079 223.888 128.331 224.668 128.403 225.064H128.451C128.535 224.668 128.811 223.876 128.991 223.36L130.359 219.568H131.487L129.039 226H127.827ZM133.421 228V224.407C133.421 223.997 133.428 223.795 133.45 223.522C133.299 223.666 133.191 223.759 133.004 223.918L132.456 224.364L132.125 223.939L133.515 222.859H134.04V228H133.421ZM136.193 227.896C137.513 226.276 138.209 224.296 138.209 222.28C138.209 220.228 137.525 218.212 136.181 216.592H137.177C138.617 218.152 139.277 220.18 139.277 222.292C139.277 224.38 138.617 226.384 137.177 227.896H136.193Z" fill="#E0E0E0"/>
<g clip-path="url(#clip0_1298_456)">
<path d="M99.6667 88.85L101 88.85C102.473 88.85 103.667 91.3979 103.667 94.5472L103.667 108.8C103.667 111.65 105.667 114.5 105.667 114.5C105.667 114.5 103.667 117.35 103.667 120.2L103.667 134.45C103.667 135.962 103.386 137.412 102.886 138.481C102.386 139.549 101.707 140.15 101 140.15L99.6667 140.15M91.6667 88.85L90.3333 88.85C88.86 88.85 87.6667 91.3979 87.6667 94.5472L87.6667 108.8C87.6667 111.65 85.6667 114.5 85.6667 114.5C85.6667 114.5 87.6667 117.35 87.6667 120.2L87.6667 134.45C87.6667 135.962 87.9476 137.412 88.4477 138.481C88.9478 139.549 89.6261 140.15 90.3333 140.15L91.6667 140.15" stroke="#FF9900" stroke-linecap="round" stroke-linejoin="round"/>
</g>
<g clip-path="url(#clip1_1298_456)">
<path d="M309.036 247H307.776C306.383 247 305.255 239.202 305.255 229.564V185.944C305.255 177.222 303.364 168.5 303.364 168.5C303.364 168.5 305.255 159.778 305.255 151.056V107.444C305.255 102.818 305.52 98.3808 305.993 95.1094C306.466 91.8379 307.107 90 307.776 90H309.036M316.6 247H317.861C319.254 247 320.382 239.202 320.382 229.564V185.944C320.382 177.222 328 168.5 328 168.5C328 168.5 320.382 159.778 320.382 151.056V107.444C320.382 102.818 320.116 98.3808 319.643 95.1094C319.171 91.8379 318.529 90 317.861 90H316.6" stroke="#FF9900" stroke-linecap="round" stroke-linejoin="round"/>
</g>
<g clip-path="url(#clip2_1298_456)">
<path d="M308.333 87.15H307C305.527 87.15 304.333 84.6021 304.333 81.4528V67.2C304.333 64.35 302.333 61.5 302.333 61.5C302.333 61.5 304.333 58.65 304.333 55.8V41.55C304.333 40.0382 304.614 38.5884 305.114 37.5195C305.614 36.4505 306.293 35.85 307 35.85H308.333M316.333 87.15H317.667C319.14 87.15 320.333 84.6021 320.333 81.4528V67.2C320.333 64.35 322.333 61.5 322.333 61.5C322.333 61.5 320.333 58.65 320.333 55.8V41.55C320.333 40.0382 320.052 38.5884 319.552 37.5195C319.052 36.4505 318.374 35.85 317.667 35.85H316.333" stroke="#FF9900" stroke-linecap="round" stroke-linejoin="round"/>
</g>
<g clip-path="url(#clip3_1298_456)">
<path d="M309.1 36.6667L309.1 38C309.1 39.4734 306.507 40.6667 303.303 40.6667L288.8 40.6667C285.9 40.6667 283 42.6667 283 42.6667C283 42.6667 280.1 40.6667 277.2 40.6667L262.7 40.6667C261.162 40.6667 259.686 40.3857 258.599 39.8856C257.511 39.3855 256.9 38.7073 256.9 38L256.9 36.6667M309.1 28.6667L309.1 27.3334C309.1 25.86 306.507 24.6667 303.303 24.6667L288.8 24.6667C285.9 24.6667 283 22.6667 283 22.6667C283 22.6667 280.1 24.6667 277.2 24.6667L262.7 24.6667C261.162 24.6667 259.686 24.9476 258.599 25.4477C257.511 25.9478 256.9 26.6261 256.9 27.3334L256.9 28.6667" stroke="#FF9900" stroke-linecap="round" stroke-linejoin="round"/>
</g>
<path d="M112.667 207C112.667 205.527 111.473 204.333 110 204.333C108.527 204.333 107.333 205.527 107.333 207C107.333 208.473 108.527 209.667 110 209.667C111.473 209.667 112.667 208.473 112.667 207ZM40 206.5C39.7239 206.5 39.5 206.724 39.5 207C39.5 207.276 39.7239 207.5 40 207.5L40 206.5ZM110 206.5L40 206.5L40 207.5L110 207.5L110 206.5Z" fill="#FF9900"/>
<path d="M40 191L40 207" stroke="#FF9900" stroke-linecap="round"/>
<path d="M310.354 258.354C310.549 258.158 310.549 257.842 310.354 257.646L307.172 254.464C306.976 254.269 306.66 254.269 306.464 254.464C306.269 254.66 306.269 254.976 306.464 255.172L309.293 258L306.464 260.828C306.269 261.024 306.269 261.34 306.464 261.536C306.66 261.731 306.976 261.731 307.172 261.536L310.354 258.354ZM96.6464 257.646C96.4512 257.842 96.4512 258.158 96.6464 258.354L99.8284 261.536C100.024 261.731 100.34 261.731 100.536 261.536C100.731 261.34 100.731 261.024 100.536 260.828L97.7071 258L100.536 255.172C100.731 254.976 100.731 254.66 100.536 254.464C100.34 254.269 100.024 254.269 99.8284 254.464L96.6464 257.646ZM310 257.5H97V258.5H310V257.5Z" fill="#FF9900"/>
<path d="M96.164 25V16.432H98.528C100.652 16.432 101.648 17.236 101.648 18.868C101.648 20.236 100.796 20.86 99.932 21.16L102.284 25H101.024L98.948 21.46H97.244V25H96.164ZM97.244 20.548H98.528C99.92 20.548 100.532 19.996 100.532 18.916C100.532 17.8 99.872 17.368 98.468 17.368H97.244V20.548ZM106.221 25.12C104.385 25.12 103.125 23.98 103.125 21.832C103.125 19.72 104.265 18.448 105.969 18.448C107.613 18.448 108.621 19.6 108.621 21.352V21.988H104.217C104.253 23.44 104.985 24.22 106.269 24.22C107.085 24.22 107.661 24.064 108.333 23.776V24.7C107.673 24.988 107.097 25.12 106.221 25.12ZM104.241 21.148H107.517C107.517 20.056 107.025 19.312 105.957 19.312C104.949 19.312 104.349 19.996 104.241 21.148ZM110.258 25V15.88H111.314V25H110.258ZM114.912 25.12C113.748 25.12 112.884 24.52 112.884 23.212C112.884 21.928 113.868 21.22 115.968 21.16L117.06 21.124V20.74C117.06 19.672 116.568 19.312 115.728 19.312C115.056 19.312 114.444 19.552 113.916 19.804L113.592 19.012C114.156 18.712 114.948 18.46 115.788 18.46C117.348 18.46 118.092 19.12 118.092 20.62V25H117.324L117.12 24.088H117.072C116.508 24.796 115.992 25.12 114.912 25.12ZM115.152 24.268C116.232 24.268 117.048 23.68 117.048 22.432V21.856L116.1 21.892C114.492 21.952 113.976 22.408 113.976 23.224C113.976 23.944 114.456 24.268 115.152 24.268ZM122.047 25.12C121.039 25.12 120.163 24.688 120.163 23.128V19.384H119.251V18.88L120.175 18.46L120.595 17.092H121.219V18.568H123.079V19.384H121.219V23.104C121.219 23.884 121.639 24.256 122.227 24.256C122.539 24.256 122.923 24.196 123.127 24.124V24.928C122.899 25.036 122.431 25.12 122.047 25.12ZM124.955 17.5C124.607 17.5 124.331 17.284 124.331 16.828C124.331 16.36 124.607 16.156 124.955 16.156C125.279 16.156 125.567 16.36 125.567 16.828C125.567 17.284 125.279 17.5 124.955 17.5ZM124.415 25V18.568H125.471V25H124.415ZM130.1 25.12C128.396 25.12 127.148 23.908 127.148 21.772C127.148 19.648 128.288 18.448 130.136 18.448C131.876 18.448 133.1 19.648 133.1 21.772C133.1 23.908 131.936 25.12 130.1 25.12ZM130.124 24.244C131.42 24.244 132.008 23.296 132.008 21.772C132.008 20.248 131.42 19.336 130.112 19.336C128.804 19.336 128.24 20.248 128.24 21.772C128.24 23.296 128.816 24.244 130.124 24.244ZM134.774 25V18.568H135.626L135.782 19.444H135.842C136.262 18.772 137.054 18.448 137.87 18.448C139.406 18.448 140.198 19.156 140.198 20.812V25H139.154V20.884C139.154 19.852 138.698 19.336 137.714 19.336C136.286 19.336 135.83 20.164 135.83 21.664V25H134.774ZM145.453 25V16.432H146.701L151.273 23.524H151.321C151.297 23.14 151.237 22.048 151.237 21.268V16.432H152.245V25H150.985L146.401 17.884H146.353C146.401 18.448 146.449 19.336 146.449 20.212V25H145.453ZM155.986 25.12C154.822 25.12 153.958 24.52 153.958 23.212C153.958 21.928 154.942 21.22 157.042 21.16L158.134 21.124V20.74C158.134 19.672 157.642 19.312 156.802 19.312C156.13 19.312 155.518 19.552 154.99 19.804L154.666 19.012C155.23 18.712 156.022 18.46 156.862 18.46C158.422 18.46 159.166 19.12 159.166 20.62V25H158.398L158.194 24.088H158.146C157.582 24.796 157.066 25.12 155.986 25.12ZM156.226 24.268C157.306 24.268 158.122 23.68 158.122 22.432V21.856L157.174 21.892C155.566 21.952 155.05 22.408 155.05 23.224C155.05 23.944 155.53 24.268 156.226 24.268ZM161.153 25V18.568H162.005L162.161 19.444H162.221C162.617 18.772 163.349 18.448 164.117 18.448C165.101 18.448 165.773 18.796 166.085 19.528H166.145C166.577 18.796 167.369 18.448 168.209 18.448C169.661 18.448 170.381 19.156 170.381 20.812V25H169.337V20.86C169.337 19.852 168.917 19.336 168.029 19.336C166.781 19.336 166.289 20.08 166.289 21.448V25H165.245V20.86C165.245 19.852 164.825 19.336 163.925 19.336C162.629 19.336 162.209 20.164 162.209 21.664V25H161.153ZM175.104 25.12C173.268 25.12 172.008 23.98 172.008 21.832C172.008 19.72 173.148 18.448 174.852 18.448C176.496 18.448 177.504 19.6 177.504 21.352V21.988H173.1C173.136 23.44 173.868 24.22 175.152 24.22C175.968 24.22 176.544 24.064 177.216 23.776V24.7C176.556 24.988 175.98 25.12 175.104 25.12ZM173.124 21.148H176.4C176.4 20.056 175.908 19.312 174.84 19.312C173.832 19.312 173.232 19.996 173.124 21.148Z" fill="#E0E0E0"/>
<path d="M2.796 119L2.796 111.38H0.12L0.12 110.432H6.54V111.38H3.876L3.876 119H2.796ZM9.95597 119.12C8.40797 119.12 7.61597 118.412 7.61597 116.78L7.61597 112.568H8.68397V116.708C8.68397 117.74 9.13997 118.244 10.112 118.244C11.54 118.244 12.008 117.416 12.008 115.916V112.568H13.064V119H12.2L12.044 118.148H11.996C11.576 118.82 10.784 119.12 9.95597 119.12ZM15.1059 121.88V112.568H15.9699L16.1139 113.444H16.1619C16.5459 112.892 17.1219 112.448 18.1659 112.448C19.7499 112.448 20.8059 113.552 20.8059 115.772C20.8059 117.968 19.7499 119.12 18.1539 119.12C17.1579 119.12 16.5339 118.688 16.1619 118.184H16.0899C16.1259 118.46 16.1619 118.94 16.1619 119.24V121.88H15.1059ZM17.9979 118.244C19.1619 118.244 19.7139 117.2 19.7139 115.76C19.7139 114.296 19.1619 113.336 17.9739 113.336C16.6659 113.336 16.1859 114.068 16.1619 115.568V115.772C16.1619 117.356 16.5939 118.244 17.9979 118.244ZM22.477 119L22.477 109.88H23.533L23.533 119H22.477ZM28.3068 119.12C26.4708 119.12 25.2108 117.98 25.2108 115.832C25.2108 113.72 26.3508 112.448 28.0548 112.448C29.6988 112.448 30.7068 113.6 30.7068 115.352V115.988H26.3028C26.3388 117.44 27.0708 118.22 28.3548 118.22C29.1708 118.22 29.7468 118.064 30.4188 117.776L30.4188 118.7C29.7588 118.988 29.1828 119.12 28.3068 119.12ZM26.3268 115.148H29.6028C29.6028 114.056 29.1108 113.312 28.0428 113.312C27.0348 113.312 26.4348 113.996 26.3268 115.148ZM33.9642 119.12C33.0642 119.12 32.4402 118.976 31.9482 118.712L31.9482 117.752C32.4522 118.004 33.2322 118.268 33.9882 118.268C35.0562 118.268 35.5122 117.896 35.5122 117.32C35.5122 116.84 35.1882 116.552 33.9282 116.072C32.6802 115.592 31.9362 115.208 31.9362 114.152C31.9362 113.06 32.9082 112.448 34.3482 112.448C35.1282 112.448 35.8002 112.616 36.4002 112.88L36.0402 113.72C35.5002 113.492 34.9002 113.312 34.2762 113.312C33.4122 113.312 32.9442 113.612 32.9442 114.092C32.9442 114.632 33.3642 114.836 34.6002 115.316C35.8122 115.784 36.5322 116.192 36.5322 117.224C36.5322 118.472 35.5362 119.12 33.9642 119.12ZM40.3036 120.896L44.5156 109.592H45.5476L41.3356 120.896H40.3036ZM49.9492 119V110.432H52.3132C54.4372 110.432 55.4332 111.236 55.4332 112.868C55.4332 114.236 54.5812 114.86 53.7172 115.16L56.0692 119H54.8092L52.7332 115.46H51.0292V119H49.9492ZM51.0292 114.548H52.3132C53.7052 114.548 54.3172 113.996 54.3172 112.916C54.3172 111.8 53.6572 111.368 52.2532 111.368H51.0292V114.548ZM59.862 119.12C58.158 119.12 56.91 117.908 56.91 115.772C56.91 113.648 58.05 112.448 59.898 112.448C61.638 112.448 62.862 113.648 62.862 115.772C62.862 117.908 61.698 119.12 59.862 119.12ZM59.886 118.244C61.182 118.244 61.77 117.296 61.77 115.772C61.77 114.248 61.182 113.336 59.874 113.336C58.566 113.336 58.002 114.248 58.002 115.772C58.002 117.296 58.578 118.244 59.886 118.244ZM65.4116 118.988L63.6476 112.556H64.7396L65.6276 115.988C65.8076 116.684 65.9876 117.452 66.0476 117.908H66.0956C66.1796 117.512 66.3596 116.708 66.5276 116.18L67.6676 112.556H68.8196L69.9236 116.18C70.0916 116.732 70.2956 117.44 70.3556 117.896H70.4036C70.4516 117.5 70.6436 116.72 70.8356 115.988L71.7356 112.556H72.8156L71.0276 118.988H69.7916L68.6876 115.364C68.4836 114.704 68.3156 114.02 68.2436 113.66H68.1956C68.1356 114.02 67.9796 114.704 67.7636 115.376L66.6116 118.988H65.4116ZM75.5892 119.12C74.6892 119.12 74.0652 118.976 73.5732 118.712V117.752C74.0772 118.004 74.8572 118.268 75.6132 118.268C76.6812 118.268 77.1372 117.896 77.1372 117.32C77.1372 116.84 76.8132 116.552 75.5532 116.072C74.3052 115.592 73.5612 115.208 73.5612 114.152C73.5612 113.06 74.5332 112.448 75.9732 112.448C76.7532 112.448 77.4252 112.616 78.0252 112.88L77.6652 113.72C77.1252 113.492 76.5252 113.312 75.9012 113.312C75.0372 113.312 74.5692 113.612 74.5692 114.092C74.5692 114.632 74.9892 114.836 76.2252 115.316C77.4372 115.784 78.1572 116.192 78.1572 117.224C78.1572 118.472 77.1612 119.12 75.5892 119.12Z" fill="#E0E0E0"/>
<path d="M232 12L235.348 3.396H236.32L239.656 12H238.54L237.508 9.348H234.112L233.092 12H232ZM234.472 8.388H237.184L236.224 5.796C236.152 5.604 235.9 4.812 235.816 4.512C235.696 5.004 235.54 5.52 235.444 5.796L234.472 8.388ZM242.652 12.12C241.644 12.12 240.768 11.688 240.768 10.128V6.384H239.856V5.88L240.78 5.46L241.2 4.092H241.824V5.568H243.684V6.384H241.824V10.104C241.824 10.884 242.244 11.256 242.832 11.256C243.144 11.256 243.528 11.196 243.732 11.124V11.928C243.504 12.036 243.036 12.12 242.652 12.12ZM246.988 12.12C245.98 12.12 245.104 11.688 245.104 10.128V6.384H244.192V5.88L245.116 5.46L245.536 4.092H246.16V5.568H248.02V6.384H246.16V10.104C246.16 10.884 246.58 11.256 247.168 11.256C247.48 11.256 247.864 11.196 248.068 11.124V11.928C247.84 12.036 247.372 12.12 246.988 12.12ZM249.356 12V5.568H250.22L250.34 6.744H250.388C250.796 6.036 251.456 5.448 252.356 5.448C252.596 5.448 252.896 5.472 253.112 5.52L252.98 6.492C252.776 6.444 252.5 6.408 252.284 6.408C251.288 6.408 250.412 7.272 250.412 8.568V12H249.356ZM254.853 4.5C254.505 4.5 254.229 4.284 254.229 3.828C254.229 3.36 254.505 3.156 254.853 3.156C255.177 3.156 255.465 3.36 255.465 3.828C255.465 4.284 255.177 4.5 254.853 4.5ZM254.313 12V5.568H255.369V12H254.313ZM260.455 12.12C259.447 12.12 258.823 11.7 258.463 11.184H258.379L258.163 12H257.407V2.88H258.463V5.1C258.463 5.64 258.427 6.156 258.403 6.42H258.463C258.823 5.88 259.447 5.46 260.455 5.46C262.051 5.46 263.107 6.576 263.107 8.784C263.107 10.992 262.039 12.12 260.455 12.12ZM260.299 11.244C261.451 11.244 262.015 10.368 262.015 8.772C262.015 7.152 261.451 6.336 260.275 6.336C258.907 6.336 258.463 7.104 258.463 8.748V8.796C258.463 10.38 258.883 11.244 260.299 11.244ZM267.046 12.12C265.498 12.12 264.706 11.412 264.706 9.78V5.568H265.774V9.708C265.774 10.74 266.23 11.244 267.202 11.244C268.63 11.244 269.098 10.416 269.098 8.916V5.568H270.154V12H269.29L269.134 11.148H269.086C268.666 11.82 267.874 12.12 267.046 12.12ZM274.164 12.12C273.156 12.12 272.28 11.688 272.28 10.128V6.384H271.368V5.88L272.292 5.46L272.712 4.092H273.336V5.568H275.196V6.384H273.336V10.104C273.336 10.884 273.756 11.256 274.344 11.256C274.656 11.256 275.04 11.196 275.244 11.124V11.928C275.016 12.036 274.548 12.12 274.164 12.12ZM279.268 12.12C277.432 12.12 276.172 10.98 276.172 8.832C276.172 6.72 277.312 5.448 279.016 5.448C280.66 5.448 281.668 6.6 281.668 8.352V8.988H277.264C277.3 10.44 278.032 11.22 279.316 11.22C280.132 11.22 280.708 11.064 281.38 10.776V11.7C280.72 11.988 280.144 12.12 279.268 12.12ZM277.288 8.148H280.564C280.564 7.056 280.072 6.312 279.004 6.312C277.996 6.312 277.396 6.996 277.288 8.148ZM285.522 13.896L289.734 2.592H290.766L286.554 13.896H285.522ZM298.672 12.12C296.044 12.12 294.736 10.404 294.736 7.704C294.736 5.112 296.2 3.312 298.852 3.312C299.728 3.312 300.568 3.492 301.216 3.816L300.784 4.728C300.256 4.488 299.608 4.26 298.84 4.26C297.004 4.26 295.876 5.568 295.876 7.716C295.876 9.84 296.86 11.172 298.828 11.172C299.572 11.172 300.232 11.028 300.88 10.836V11.772C300.244 12.012 299.62 12.12 298.672 12.12ZM305.198 12.12C303.494 12.12 302.246 10.908 302.246 8.772C302.246 6.648 303.386 5.448 305.234 5.448C306.974 5.448 308.198 6.648 308.198 8.772C308.198 10.908 307.034 12.12 305.198 12.12ZM305.222 11.244C306.518 11.244 307.106 10.296 307.106 8.772C307.106 7.248 306.518 6.336 305.21 6.336C303.902 6.336 303.338 7.248 303.338 8.772C303.338 10.296 303.914 11.244 305.222 11.244ZM309.872 12V2.88H310.928V12H309.872ZM315.233 12.12C313.685 12.12 312.893 11.412 312.893 9.78V5.568H313.961V9.708C313.961 10.74 314.417 11.244 315.389 11.244C316.817 11.244 317.285 10.416 317.285 8.916V5.568H318.341V12H317.477L317.321 11.148H317.273C316.853 11.82 316.061 12.12 315.233 12.12ZM320.383 12V5.568H321.235L321.391 6.444H321.451C321.847 5.772 322.579 5.448 323.347 5.448C324.331 5.448 325.003 5.796 325.315 6.528H325.375C325.807 5.796 326.599 5.448 327.439 5.448C328.891 5.448 329.611 6.156 329.611 7.812V12H328.567V7.86C328.567 6.852 328.147 6.336 327.259 6.336C326.011 6.336 325.519 7.08 325.519 8.448V12H324.475V7.86C324.475 6.852 324.055 6.336 323.155 6.336C321.859 6.336 321.439 7.164 321.439 8.664V12H320.383ZM331.598 12V5.568H332.45L332.606 6.444H332.666C333.086 5.772 333.878 5.448 334.694 5.448C336.23 5.448 337.022 6.156 337.022 7.812V12H335.978V7.884C335.978 6.852 335.522 6.336 334.538 6.336C333.11 6.336 332.654 7.164 332.654 8.664V12H331.598Z" fill="#E0E0E0"/>
<path d="M183.164 276V267.432H185.804C188.384 267.432 190.028 268.884 190.028 271.632C190.028 274.524 188.372 276 185.552 276H183.164ZM184.244 275.076H185.408C187.724 275.076 188.888 273.924 188.888 271.668C188.888 269.388 187.712 268.356 185.648 268.356H184.244V275.076ZM194.522 276.12C192.686 276.12 191.426 274.98 191.426 272.832C191.426 270.72 192.566 269.448 194.27 269.448C195.914 269.448 196.922 270.6 196.922 272.352V272.988H192.518C192.554 274.44 193.286 275.22 194.57 275.22C195.386 275.22 195.962 275.064 196.634 274.776V275.7C195.974 275.988 195.398 276.12 194.522 276.12ZM192.542 272.148H195.818C195.818 271.056 195.326 270.312 194.258 270.312C193.25 270.312 192.65 270.996 192.542 272.148ZM201.019 278.88C200.083 278.88 199.315 278.748 198.703 278.472V277.5C199.315 277.824 200.155 278.004 201.079 278.004C202.183 278.004 202.855 277.32 202.855 276.192V275.94C202.855 275.748 202.879 275.292 202.891 275.148H202.843C202.399 275.808 201.727 276.12 200.851 276.12C199.183 276.12 198.199 274.896 198.199 272.796C198.199 270.744 199.183 269.448 200.839 269.448C201.679 269.448 202.375 269.76 202.855 270.42H202.915L203.059 269.568H203.899V276.108C203.899 277.944 202.987 278.88 201.019 278.88ZM201.007 275.256C202.303 275.256 202.867 274.596 202.867 273.048V272.796C202.867 271.044 202.279 270.336 200.983 270.336C199.903 270.336 199.291 271.224 199.291 272.808C199.291 274.392 199.879 275.256 201.007 275.256ZM205.942 276V269.568H206.806L206.926 270.744H206.974C207.382 270.036 208.042 269.448 208.942 269.448C209.182 269.448 209.482 269.472 209.698 269.52L209.566 270.492C209.362 270.444 209.086 270.408 208.87 270.408C207.874 270.408 206.998 271.272 206.998 272.568V276H205.942ZM213.635 276.12C211.799 276.12 210.539 274.98 210.539 272.832C210.539 270.72 211.679 269.448 213.383 269.448C215.027 269.448 216.035 270.6 216.035 272.352V272.988H211.631C211.667 274.44 212.399 275.22 213.683 275.22C214.499 275.22 215.075 275.064 215.747 274.776V275.7C215.087 275.988 214.511 276.12 213.635 276.12ZM211.655 272.148H214.931C214.931 271.056 214.439 270.312 213.371 270.312C212.363 270.312 211.763 270.996 211.655 272.148ZM220.408 276.12C218.572 276.12 217.312 274.98 217.312 272.832C217.312 270.72 218.452 269.448 220.156 269.448C221.8 269.448 222.808 270.6 222.808 272.352V272.988H218.404C218.44 274.44 219.172 275.22 220.456 275.22C221.272 275.22 221.848 275.064 222.52 274.776V275.7C221.86 275.988 221.284 276.12 220.408 276.12ZM218.428 272.148H221.704C221.704 271.056 221.212 270.312 220.144 270.312C219.136 270.312 218.536 270.996 218.428 272.148Z" fill="#E0E0E0"/>
<path d="M354.354 88.6464C354.158 88.4512 353.842 88.4512 353.646 88.6464L350.464 91.8284C350.269 92.0237 350.269 92.3403 350.464 92.5355C350.66 92.7308 350.976 92.7308 351.172 92.5355L354 89.7071L356.828 92.5355C357.024 92.7308 357.34 92.7308 357.536 92.5355C357.731 92.3403 357.731 92.0237 357.536 91.8284L354.354 88.6464ZM353.646 248.354C353.842 248.549 354.158 248.549 354.354 248.354L357.536 245.172C357.731 244.976 357.731 244.66 357.536 244.464C357.34 244.269 357.024 244.269 356.828 244.464L354 247.293L351.172 244.464C350.976 244.269 350.66 244.269 350.464 244.464C350.269 244.66 350.269 244.976 350.464 245.172L353.646 248.354ZM353.5 89L353.5 248L354.5 248L354.5 89L353.5 89Z" fill="#FF9900"/>
<path d="M373.12 194.332C373.12 196.96 371.404 198.268 368.704 198.268C366.112 198.268 364.312 196.804 364.312 194.152C364.312 193.276 364.492 192.436 364.816 191.788L365.728 192.22C365.488 192.748 365.26 193.396 365.26 194.164C365.26 196 366.568 197.128 368.716 197.128C370.84 197.128 372.172 196.144 372.172 194.176C372.172 193.432 372.028 192.772 371.836 192.124L372.772 192.124C373.012 192.76 373.12 193.384 373.12 194.332ZM373.12 188.838C373.12 190.002 372.52 190.866 371.212 190.866C369.928 190.866 369.22 189.882 369.16 187.782L369.124 186.69L368.74 186.69C367.672 186.69 367.312 187.182 367.312 188.022C367.312 188.694 367.552 189.306 367.804 189.834L367.012 190.158C366.712 189.594 366.46 188.802 366.46 187.962C366.46 186.402 367.12 185.658 368.62 185.658L373 185.658L373 186.426L372.088 186.63L372.088 186.678C372.796 187.242 373.12 187.758 373.12 188.838ZM372.268 188.598C372.268 187.518 371.68 186.702 370.432 186.702L369.856 186.702L369.892 187.65C369.952 189.258 370.408 189.774 371.224 189.774C371.944 189.774 372.268 189.294 372.268 188.598ZM373 183.671L366.568 183.671L366.568 182.807L367.744 182.687L367.744 182.639C367.036 182.231 366.448 181.571 366.448 180.671C366.448 180.431 366.472 180.131 366.52 179.915L367.492 180.047C367.444 180.251 367.408 180.527 367.408 180.743C367.408 181.739 368.272 182.615 369.568 182.615L373 182.615L373 183.671ZM373.12 176.434C373.12 178.03 372.004 179.074 369.796 179.074C367.588 179.074 366.448 178.018 366.448 176.422C366.448 175.426 366.868 174.826 367.396 174.43L367.396 174.358C367.192 174.382 366.688 174.43 366.448 174.43L363.88 174.43L363.88 173.374L373 173.374L373 174.226L372.136 174.382L372.136 174.43C372.688 174.814 373.12 175.426 373.12 176.434ZM372.244 176.266C372.244 174.91 371.5 174.418 370 174.418L369.808 174.418C368.212 174.418 367.324 174.85 367.324 176.278C367.324 177.418 368.296 177.982 369.82 177.982C371.356 177.982 372.244 177.418 372.244 176.266ZM365.5 170.792C365.5 171.14 365.284 171.416 364.828 171.416C364.36 171.416 364.156 171.14 364.156 170.792C364.156 170.468 364.36 170.18 364.828 170.18C365.284 170.18 365.5 170.468 365.5 170.792ZM373 171.332L366.568 171.332L366.568 170.276L373 170.276L373 171.332ZM373 168.238L366.568 168.238L366.568 167.386L367.444 167.23L367.444 167.17C366.772 166.75 366.448 165.958 366.448 165.142C366.448 163.606 367.156 162.814 368.812 162.814L373 162.814L373 163.858L368.884 163.858C367.852 163.858 367.336 164.314 367.336 165.298C367.336 166.726 368.164 167.182 369.664 167.182L373 167.182L373 168.238ZM373.12 159.26C373.12 160.424 372.52 161.288 371.212 161.288C369.928 161.288 369.22 160.304 369.16 158.204L369.124 157.112L368.74 157.112C367.672 157.112 367.312 157.604 367.312 158.444C367.312 159.116 367.552 159.728 367.804 160.256L367.012 160.58C366.712 160.016 366.46 159.224 366.46 158.384C366.46 156.824 367.12 156.08 368.62 156.08L373 156.08L373 156.848L372.088 157.052L372.088 157.1C372.796 157.664 373.12 158.18 373.12 159.26ZM372.268 159.02C372.268 157.94 371.68 157.124 370.432 157.124L369.856 157.124L369.892 158.072C369.952 159.68 370.408 160.196 371.224 160.196C371.944 160.196 372.268 159.716 372.268 159.02ZM373 154.093L363.88 154.093L363.88 153.037L373 153.037L373 154.093ZM365.5 150.46C365.5 150.808 365.284 151.084 364.828 151.084C364.36 151.084 364.156 150.808 364.156 150.46C364.156 150.136 364.36 149.848 364.828 149.848C365.284 149.848 365.5 150.136 365.5 150.46ZM373 151L366.568 151L366.568 149.944L373 149.944L373 151ZM373.12 145.938C373.12 146.946 372.688 147.822 371.128 147.822L367.384 147.822L367.384 148.734L366.88 148.734L366.46 147.81L365.092 147.39L365.092 146.766L366.568 146.766L366.568 144.906L367.384 144.906L367.384 146.766L371.104 146.766C371.884 146.766 372.256 146.346 372.256 145.758C372.256 145.446 372.196 145.062 372.124 144.858L372.928 144.858C373.036 145.086 373.12 145.554 373.12 145.938ZM375.88 143.582C375.88 143.966 375.832 144.254 375.784 144.458L374.944 144.458C374.98 144.29 375.016 144.026 375.016 143.75C375.016 143.018 374.56 142.598 373.876 142.322L373.024 141.986L366.568 144.578L366.568 143.45L370.228 142.058C370.876 141.818 371.452 141.614 371.98 141.518L371.98 141.47C371.584 141.374 370.876 141.158 370.216 140.918L366.568 139.61L366.568 138.47L373.888 141.242C375.1 141.698 375.88 142.334 375.88 143.582Z" fill="#E0E0E0"/>
<path d="M2.164 183V174.432H6.952V175.38H3.244V178.416H6.724V179.364H3.244V183H2.164ZM8.78266 175.5C8.43466 175.5 8.15866 175.284 8.15866 174.828C8.15866 174.36 8.43466 174.156 8.78266 174.156C9.10666 174.156 9.39466 174.36 9.39466 174.828C9.39466 175.284 9.10666 175.5 8.78266 175.5ZM8.24266 183V176.568H9.29866V183H8.24266ZM14.0724 183.12C12.2364 183.12 10.9764 181.98 10.9764 179.832C10.9764 177.72 12.1164 176.448 13.8204 176.448C15.4644 176.448 16.4724 177.6 16.4724 179.352V179.988H12.0684C12.1044 181.44 12.8364 182.22 14.1204 182.22C14.9364 182.22 15.5124 182.064 16.1844 181.776V182.7C15.5244 182.988 14.9484 183.12 14.0724 183.12ZM12.0924 179.148H15.3684C15.3684 178.056 14.8764 177.312 13.8084 177.312C12.8004 177.312 12.2004 177.996 12.0924 179.148ZM18.1098 183V173.88H19.1658V183H18.1098ZM23.4836 183.12C21.8876 183.12 20.8436 182.004 20.8436 179.796C20.8436 177.588 21.8996 176.448 23.4956 176.448C24.4916 176.448 25.0916 176.868 25.4876 177.396H25.5596C25.5356 177.192 25.4876 176.688 25.4876 176.448V173.88H26.5436V183H25.6916L25.5356 182.136H25.4876C25.1036 182.688 24.4916 183.12 23.4836 183.12ZM23.6516 182.244C25.0076 182.244 25.4996 181.5 25.4996 180V179.808C25.4996 178.212 25.0676 177.324 23.6396 177.324C22.4996 177.324 21.9356 178.296 21.9356 179.82C21.9356 181.356 22.4996 182.244 23.6516 182.244ZM30.8036 184.896L35.0156 173.592H36.0476L31.8356 184.896H30.8036ZM40.4492 183V174.432H42.8132C44.9372 174.432 45.9332 175.236 45.9332 176.868C45.9332 178.236 45.0812 178.86 44.2172 179.16L46.5692 183H45.3092L43.2332 179.46H41.5292V183H40.4492ZM41.5292 178.548H42.8132C44.2052 178.548 44.8172 177.996 44.8172 176.916C44.8172 175.8 44.1572 175.368 42.7532 175.368H41.5292V178.548ZM50.506 183.12C48.67 183.12 47.41 181.98 47.41 179.832C47.41 177.72 48.55 176.448 50.254 176.448C51.898 176.448 52.906 177.6 52.906 179.352V179.988H48.502C48.538 181.44 49.27 182.22 50.554 182.22C51.37 182.22 51.946 182.064 52.618 181.776V182.7C51.958 182.988 51.382 183.12 50.506 183.12ZM48.526 179.148H51.802C51.802 178.056 51.31 177.312 50.242 177.312C49.234 177.312 48.634 177.996 48.526 179.148ZM57.1234 183.12C55.4074 183.12 54.1834 182.1 54.1834 179.82C54.1834 177.444 55.4674 176.448 57.1954 176.448C57.8434 176.448 58.5034 176.604 58.8874 176.796L58.5634 177.672C58.1794 177.528 57.6154 177.372 57.1714 177.372C55.8874 177.372 55.2754 178.2 55.2754 179.808C55.2754 181.356 55.8994 182.208 57.1114 182.208C57.8074 182.208 58.3354 182.04 58.7794 181.836V182.772C58.3474 183 57.8554 183.12 57.1234 183.12ZM62.9011 183.12C61.1971 183.12 59.9491 181.908 59.9491 179.772C59.9491 177.648 61.0891 176.448 62.9371 176.448C64.6771 176.448 65.9011 177.648 65.9011 179.772C65.9011 181.908 64.7371 183.12 62.9011 183.12ZM62.9251 182.244C64.2211 182.244 64.8091 181.296 64.8091 179.772C64.8091 178.248 64.2211 177.336 62.9131 177.336C61.6051 177.336 61.0411 178.248 61.0411 179.772C61.0411 181.296 61.6171 182.244 62.9251 182.244ZM67.5747 183V176.568H68.4387L68.5587 177.744H68.6067C69.0147 177.036 69.6747 176.448 70.5747 176.448C70.8147 176.448 71.1147 176.472 71.3307 176.52L71.1987 177.492C70.9947 177.444 70.7187 177.408 70.5027 177.408C69.5067 177.408 68.6307 178.272 68.6307 179.568V183H67.5747ZM74.8117 183.12C73.2157 183.12 72.1717 182.004 72.1717 179.796C72.1717 177.588 73.2277 176.448 74.8237 176.448C75.8197 176.448 76.4197 176.868 76.8157 177.396H76.8877C76.8637 177.192 76.8157 176.688 76.8157 176.448V173.88H77.8717V183H77.0197L76.8637 182.136H76.8157C76.4317 182.688 75.8197 183.12 74.8117 183.12ZM74.9797 182.244C76.3357 182.244 76.8277 181.5 76.8277 180V179.808C76.8277 178.212 76.3957 177.324 74.9677 177.324C73.8277 177.324 73.2637 178.296 73.2637 179.82C73.2637 181.356 73.8277 182.244 74.9797 182.244Z" fill="#E0E0E0"/>
<rect x="98" y="36" width="52" height="52" fill="#353535"/>
<rect x="98" y="36" width="52" height="52" stroke="#E0E0E0" stroke-width="2"/>
<path d="M116.126 69L120.032 58.962H121.166L125.058 69H123.756L122.552 65.906H118.59L117.4 69H116.126ZM119.01 64.786H122.174L121.054 61.762C120.97 61.538 120.676 60.614 120.578 60.264C120.438 60.838 120.256 61.44 120.144 61.762L119.01 64.786ZM127.327 72V67.8084C127.327 67.3296 127.335 67.0944 127.36 66.7752C127.184 66.9432 127.058 67.0524 126.84 67.2372L126.201 67.758L125.815 67.2624L127.436 66.0024H128.049V72H127.327Z" fill="#E0E0E0"/>
<rect x="151" y="36" width="52" height="52" fill="#353535"/>
<rect x="151" y="36" width="52" height="52" stroke="#E0E0E0" stroke-width="2"/>
<path d="M169.126 69L173.032 58.962H174.166L178.058 69H176.756L175.552 65.906H171.59L170.4 69H169.126ZM172.01 64.786H175.174L174.054 61.762C173.97 61.538 173.676 60.614 173.578 60.264C173.438 60.838 173.256 61.44 173.144 61.762L172.01 64.786ZM178.47 72V71.3868L180.041 69.7992C180.94 68.892 181.436 68.3712 181.436 67.5564C181.436 66.9012 181.007 66.5484 180.377 66.5484C179.789 66.5484 179.394 66.7584 178.932 67.1196L178.538 66.624C179.008 66.2292 179.613 65.9184 180.377 65.9184C181.494 65.9184 182.192 66.5232 182.192 67.5144C182.192 68.4552 181.57 69.1524 180.654 70.0596L179.403 71.2944V71.328H182.435V72H178.47Z" fill="#E0E0E0"/>
<rect x="204" y="36" width="52" height="52" fill="#353535"/>
<rect x="204" y="36" width="52" height="52" stroke="#E0E0E0" stroke-width="2"/>
<path d="M222.126 69L226.032 58.962H227.166L231.058 69H229.756L228.552 65.906H224.59L223.4 69H222.126ZM225.01 64.786H228.174L227.054 61.762C226.97 61.538 226.676 60.614 226.578 60.264C226.438 60.838 226.256 61.44 226.144 61.762L225.01 64.786ZM233.092 72.084C232.462 72.084 231.941 72 231.445 71.7564V71.0676C231.949 71.3196 232.562 71.4624 233.1 71.4624C234.175 71.4624 234.62 71.0172 234.62 70.278C234.62 69.5304 233.999 69.2196 232.94 69.2196H232.361V68.5896H232.949C233.932 68.5896 234.452 68.136 234.452 67.4556C234.452 66.876 234.032 66.54 233.36 66.54C232.714 66.54 232.294 66.75 231.848 67.044L231.479 66.54C231.907 66.204 232.546 65.9184 233.352 65.9184C234.604 65.9184 235.208 66.5484 235.208 67.4052C235.208 68.2116 234.721 68.6904 233.965 68.8416V68.8752C234.923 68.9928 235.393 69.5052 235.393 70.2948C235.393 71.3448 234.679 72.084 233.092 72.084Z" fill="#E0E0E0"/>
<rect x="257" y="36" width="52" height="52" fill="#353535"/>
<rect x="257" y="36" width="52" height="52" stroke="#E0E0E0" stroke-width="2"/>
<path d="M275.126 69L279.032 58.962H280.166L284.058 69H282.756L281.552 65.906H277.59L276.4 69H275.126ZM278.01 64.786H281.174L280.054 61.762C279.97 61.538 279.676 60.614 279.578 60.264C279.438 60.838 279.256 61.44 279.144 61.762L278.01 64.786ZM287.116 72V70.6392H284.244V70.0092L287.066 65.9688H287.83V69.9756H288.704V70.6392H287.83V72H287.116ZM284.966 69.9756H287.116V68.0856C287.116 67.506 287.133 67.128 287.158 66.7584H287.125C287.032 66.9684 286.881 67.2456 286.764 67.4136L284.966 69.9756Z" fill="#E0E0E0"/>
<defs>
<clipPath id="clip0_1298_456">
<rect width="8" height="57" fill="white" transform="translate(93 143) rotate(-180)"/>
</clipPath>
<clipPath id="clip1_1298_456">
<rect width="15" height="178" fill="white" transform="translate(314 80)"/>
</clipPath>
<clipPath id="clip2_1298_456">
<rect width="8" height="57" fill="white" transform="translate(315 33)"/>
</clipPath>
<clipPath id="clip3_1298_456">
<rect width="8" height="58" fill="white" transform="translate(254 30) rotate(-90)"/>
</clipPath>
</defs>
</svg>
