<svg width="510" height="280" viewBox="0 0 510 280" fill="none" xmlns="http://www.w3.org/2000/svg">
<rect x="122.5" y="77.5" width="53" height="53" stroke="#E0E0E0"/>
<path d="M133.822 110.896C132.382 109.384 131.722 107.38 131.722 105.292C131.722 103.18 132.382 101.152 133.822 99.592H134.818C133.474 101.212 132.79 103.228 132.79 105.28C132.79 107.296 133.486 109.276 134.806 110.896H133.822ZM135.179 109L138.527 100.396H139.499L142.835 109H141.719L140.687 106.348H137.291L136.271 109H135.179ZM137.651 105.388H140.363L139.403 102.796C139.331 102.604 139.079 101.812 138.995 101.512C138.875 102.004 138.719 102.52 138.623 102.796L137.651 105.388ZM144.78 111V107.407C144.78 106.997 144.787 106.795 144.809 106.522C144.658 106.666 144.55 106.759 144.363 106.918L143.815 107.364L143.484 106.939L144.874 105.859H145.399V111H144.78ZM147.672 110.548C147.9 109.636 148.152 108.448 148.272 107.608H149.4L149.484 107.74C149.268 108.592 148.836 109.684 148.452 110.548H147.672ZM152.827 109L150.391 102.568H151.519L152.887 106.36C153.079 106.888 153.331 107.668 153.403 108.064H153.451C153.535 107.668 153.811 106.876 153.991 106.36L155.359 102.568H156.487L154.039 109H152.827ZM158.421 111V107.407C158.421 106.997 158.428 106.795 158.45 106.522C158.299 106.666 158.191 106.759 158.004 106.918L157.456 107.364L157.125 106.939L158.515 105.859H159.04V111H158.421ZM161.193 110.896C162.513 109.276 163.209 107.296 163.209 105.28C163.209 103.228 162.525 101.212 161.181 99.592H162.177C163.617 101.152 164.277 103.18 164.277 105.292C164.277 107.38 163.617 109.384 162.177 110.896H161.193Z" fill="#E0E0E0"/>
<rect x="122.5" y="24.5" width="53" height="53" fill="#896409"/>
<rect x="122.5" y="24.5" width="53" height="53" stroke="#E0E0E0"/>
<path d="M130.688 57.896C129.248 56.384 128.588 54.38 128.588 52.292C128.588 50.18 129.248 48.152 130.688 46.592H131.684C130.34 48.212 129.656 50.228 129.656 52.28C129.656 54.296 130.352 56.276 131.672 57.896H130.688ZM132.046 56L135.394 47.396H136.366L139.702 56H138.586L137.554 53.348H134.158L133.138 56H132.046ZM134.518 52.388H137.23L136.27 49.796C136.198 49.604 135.946 48.812 135.862 48.512C135.742 49.004 135.586 49.52 135.49 49.796L134.518 52.388ZM141.647 58V54.4072C141.647 53.9968 141.654 53.7952 141.675 53.5216C141.524 53.6656 141.416 53.7592 141.229 53.9176L140.682 54.364L140.351 53.9392L141.74 52.8592H142.266V58H141.647ZM144.538 57.548C144.766 56.636 145.018 55.448 145.138 54.608H146.266L146.35 54.74C146.134 55.592 145.702 56.684 145.318 57.548H144.538ZM148.421 56V47.432H151.061C153.641 47.432 155.285 48.884 155.285 51.632C155.285 54.524 153.629 56 150.809 56H148.421ZM149.501 55.076H150.665C152.981 55.076 154.145 53.924 154.145 51.668C154.145 49.388 152.969 48.356 150.905 48.356H149.501V55.076ZM156.023 58L158.031 52.8376H158.615L160.616 58H159.947L159.327 56.4088H157.29L156.678 58H156.023ZM157.506 55.8328H159.133L158.557 54.2776C158.514 54.1624 158.363 53.6872 158.312 53.5072C158.24 53.8024 158.147 54.112 158.089 54.2776L157.506 55.8328ZM164.326 57.896C165.646 56.276 166.342 54.296 166.342 52.28C166.342 50.228 165.658 48.212 164.314 46.592H165.31C166.75 48.152 167.41 50.18 167.41 52.292C167.41 54.38 166.75 56.384 165.31 57.896H164.326Z" fill="#E0E0E0"/>
<path d="M162.377 58V54.4072C162.377 53.9968 162.384 53.7952 162.405 53.5216C162.254 53.6656 162.146 53.7592 161.959 53.9176L161.412 54.364L161.081 53.9392L162.47 52.8592H162.996V58H162.377Z" fill="#E0E0E0"/>
<rect x="175.5" y="24.5" width="53" height="53" fill="#896409"/>
<rect x="175.5" y="24.5" width="53" height="53" stroke="#E0E0E0"/>
<path d="M182.909 57.896C181.469 56.384 180.809 54.38 180.809 52.292C180.809 50.18 181.469 48.152 182.909 46.592H183.905C182.561 48.212 181.877 50.228 181.877 52.28C181.877 54.296 182.573 56.276 183.893 57.896H182.909ZM184.266 56L187.614 47.396H188.586L191.922 56H190.806L189.774 53.348H186.378L185.358 56H184.266ZM186.738 52.388H189.45L188.49 49.796C188.418 49.604 188.166 48.812 188.082 48.512C187.962 49.004 187.806 49.52 187.71 49.796L186.738 52.388ZM192.276 58V57.4744L193.622 56.1136C194.393 55.336 194.818 54.8896 194.818 54.1912C194.818 53.6296 194.45 53.3272 193.91 53.3272C193.406 53.3272 193.068 53.5072 192.672 53.8168L192.334 53.392C192.737 53.0536 193.255 52.7872 193.91 52.7872C194.868 52.7872 195.466 53.3056 195.466 54.1552C195.466 54.9616 194.933 55.5592 194.148 56.3368L193.075 57.3952V57.424H195.674V58H192.276ZM196.759 57.548C196.987 56.636 197.239 55.448 197.359 54.608H198.487L198.571 54.74C198.355 55.592 197.923 56.684 197.539 57.548H196.759ZM200.642 56V47.432H203.282C205.862 47.432 207.506 48.884 207.506 51.632C207.506 54.524 205.85 56 203.03 56H200.642ZM201.722 55.076H202.886C205.202 55.076 206.366 53.924 206.366 51.668C206.366 49.388 205.19 48.356 203.126 48.356H201.722V55.076ZM208.243 58L210.252 52.8376H210.835L212.837 58H212.167L211.548 56.4088H209.511L208.899 58H208.243ZM209.727 55.8328H211.354L210.778 54.2776C210.735 54.1624 210.583 53.6872 210.533 53.5072C210.461 53.8024 210.367 54.112 210.31 54.2776L209.727 55.8328ZM218.106 57.896C219.426 56.276 220.122 54.296 220.122 52.28C220.122 50.228 219.438 48.212 218.094 46.592H219.09C220.53 48.152 221.19 50.18 221.19 52.292C221.19 54.38 220.53 56.384 219.09 57.896H218.106Z" fill="#E0E0E0"/>
<rect x="175.5" y="77.5" width="53" height="53" stroke="#E0E0E0"/>
<path d="M186.822 110.896C185.382 109.384 184.722 107.38 184.722 105.292C184.722 103.18 185.382 101.152 186.822 99.592H187.818C186.474 101.212 185.79 103.228 185.79 105.28C185.79 107.296 186.486 109.276 187.806 110.896H186.822ZM188.179 109L191.527 100.396H192.499L195.835 109H194.719L193.687 106.348H190.291L189.271 109H188.179ZM190.651 105.388H193.363L192.403 102.796C192.331 102.604 192.079 101.812 191.995 101.512C191.875 102.004 191.719 102.52 191.623 102.796L190.651 105.388ZM196.189 111V110.474L197.535 109.114C198.306 108.336 198.731 107.89 198.731 107.191C198.731 106.63 198.363 106.327 197.823 106.327C197.319 106.327 196.981 106.507 196.585 106.817L196.247 106.392C196.65 106.054 197.168 105.787 197.823 105.787C198.781 105.787 199.379 106.306 199.379 107.155C199.379 107.962 198.846 108.559 198.061 109.337L196.988 110.395V110.424H199.587V111H196.189ZM200.672 110.548C200.9 109.636 201.152 108.448 201.272 107.608H202.4L202.484 107.74C202.268 108.592 201.836 109.684 201.452 110.548H200.672ZM205.827 109L203.391 102.568H204.519L205.887 106.36C206.079 106.888 206.331 107.668 206.403 108.064H206.451C206.535 107.668 206.811 106.876 206.991 106.36L208.359 102.568H209.487L207.039 109H205.827ZM209.83 111V110.474L211.176 109.114C211.947 108.336 212.372 107.89 212.372 107.191C212.372 106.63 212.004 106.327 211.464 106.327C210.96 106.327 210.622 106.507 210.226 106.817L209.888 106.392C210.291 106.054 210.809 105.787 211.464 105.787C212.422 105.787 213.02 106.306 213.02 107.155C213.02 107.962 212.487 108.559 211.702 109.337L210.629 110.395V110.424H213.228V111H209.83ZM214.193 110.896C215.513 109.276 216.209 107.296 216.209 105.28C216.209 103.228 215.525 101.212 214.181 99.592H215.177C216.617 101.152 217.277 103.18 217.277 105.292C217.277 107.38 216.617 109.384 215.177 110.896H214.193Z" fill="#E0E0E0"/>
<rect x="175.5" y="130.5" width="53" height="53" stroke="#E0E0E0"/>
<path d="M186.822 163.896C185.382 162.384 184.722 160.38 184.722 158.292C184.722 156.18 185.382 154.152 186.822 152.592H187.818C186.474 154.212 185.79 156.228 185.79 158.28C185.79 160.296 186.486 162.276 187.806 163.896H186.822ZM188.179 162L191.527 153.396H192.499L195.835 162H194.719L193.687 159.348H190.291L189.271 162H188.179ZM190.651 158.388H193.363L192.403 155.796C192.331 155.604 192.079 154.812 191.995 154.512C191.875 155.004 191.719 155.52 191.623 155.796L190.651 158.388ZM196.189 164V163.474L197.535 162.114C198.306 161.336 198.731 160.89 198.731 160.191C198.731 159.63 198.363 159.327 197.823 159.327C197.319 159.327 196.981 159.507 196.585 159.817L196.247 159.392C196.65 159.054 197.168 158.787 197.823 158.787C198.781 158.787 199.379 159.306 199.379 160.155C199.379 160.962 198.846 161.559 198.061 162.337L196.988 163.395V163.424H199.587V164H196.189ZM200.672 163.548C200.9 162.636 201.152 161.448 201.272 160.608H202.4L202.484 160.74C202.268 161.592 201.836 162.684 201.452 163.548H200.672ZM205.827 162L203.391 155.568H204.519L205.887 159.36C206.079 159.888 206.331 160.668 206.403 161.064H206.451C206.535 160.668 206.811 159.876 206.991 159.36L208.359 155.568H209.487L207.039 162H205.827ZM209.83 164V163.474L211.176 162.114C211.947 161.336 212.372 160.89 212.372 160.191C212.372 159.63 212.004 159.327 211.464 159.327C210.96 159.327 210.622 159.507 210.226 159.817L209.888 159.392C210.291 159.054 210.809 158.787 211.464 158.787C212.422 158.787 213.02 159.306 213.02 160.155C213.02 160.962 212.487 161.559 211.702 162.337L210.629 163.395V163.424H213.228V164H209.83ZM214.193 163.896C215.513 162.276 216.209 160.296 216.209 158.28C216.209 156.228 215.525 154.212 214.181 152.592H215.177C216.617 154.152 217.277 156.18 217.277 158.292C217.277 160.38 216.617 162.384 215.177 163.896H214.193Z" fill="#E0E0E0"/>
<rect x="175.5" y="183.5" width="53" height="53" stroke="#E0E0E0"/>
<path d="M186.822 216.896C185.382 215.384 184.722 213.38 184.722 211.292C184.722 209.18 185.382 207.152 186.822 205.592H187.818C186.474 207.212 185.79 209.228 185.79 211.28C185.79 213.296 186.486 215.276 187.806 216.896H186.822ZM188.179 215L191.527 206.396H192.499L195.835 215H194.719L193.687 212.348H190.291L189.271 215H188.179ZM190.651 211.388H193.363L192.403 208.796C192.331 208.604 192.079 207.812 191.995 207.512C191.875 208.004 191.719 208.52 191.623 208.796L190.651 211.388ZM196.189 217V216.474L197.535 215.114C198.306 214.336 198.731 213.89 198.731 213.191C198.731 212.63 198.363 212.327 197.823 212.327C197.319 212.327 196.981 212.507 196.585 212.817L196.247 212.392C196.65 212.054 197.168 211.787 197.823 211.787C198.781 211.787 199.379 212.306 199.379 213.155C199.379 213.962 198.846 214.559 198.061 215.337L196.988 216.395V216.424H199.587V217H196.189ZM200.672 216.548C200.9 215.636 201.152 214.448 201.272 213.608H202.4L202.484 213.74C202.268 214.592 201.836 215.684 201.452 216.548H200.672ZM205.827 215L203.391 208.568H204.519L205.887 212.36C206.079 212.888 206.331 213.668 206.403 214.064H206.451C206.535 213.668 206.811 212.876 206.991 212.36L208.359 208.568H209.487L207.039 215H205.827ZM209.83 217V216.474L211.176 215.114C211.947 214.336 212.372 213.89 212.372 213.191C212.372 212.63 212.004 212.327 211.464 212.327C210.96 212.327 210.622 212.507 210.226 212.817L209.888 212.392C210.291 212.054 210.809 211.787 211.464 211.787C212.422 211.787 213.02 212.306 213.02 213.155C213.02 213.962 212.487 214.559 211.702 215.337L210.629 216.395V216.424H213.228V217H209.83ZM214.193 216.896C215.513 215.276 216.209 213.296 216.209 211.28C216.209 209.228 215.525 207.212 214.181 205.592H215.177C216.617 207.152 217.277 209.18 217.277 211.292C217.277 213.38 216.617 215.384 215.177 216.896H214.193Z" fill="#E0E0E0"/>
<rect x="228.5" y="24.5" width="53" height="53" fill="#896409"/>
<rect x="228.5" y="24.5" width="53" height="53" stroke="#E0E0E0"/>
<path d="M235.909 57.896C234.469 56.384 233.809 54.38 233.809 52.292C233.809 50.18 234.469 48.152 235.909 46.592H236.905C235.561 48.212 234.877 50.228 234.877 52.28C234.877 54.296 235.573 56.276 236.893 57.896H235.909ZM237.266 56L240.614 47.396H241.586L244.922 56H243.806L242.774 53.348H239.378L238.358 56H237.266ZM239.738 52.388H242.45L241.49 49.796C241.418 49.604 241.166 48.812 241.082 48.512C240.962 49.004 240.806 49.52 240.71 49.796L239.738 52.388ZM246.666 58.072C246.126 58.072 245.679 58 245.254 57.7912V57.2008C245.686 57.4168 246.212 57.5392 246.673 57.5392C247.594 57.5392 247.976 57.1576 247.976 56.524C247.976 55.8832 247.443 55.6168 246.536 55.6168H246.039V55.0768H246.543C247.386 55.0768 247.832 54.688 247.832 54.1048C247.832 53.608 247.472 53.32 246.896 53.32C246.342 53.32 245.982 53.5 245.6 53.752L245.283 53.32C245.65 53.032 246.198 52.7872 246.889 52.7872C247.962 52.7872 248.48 53.3272 248.48 54.0616C248.48 54.7528 248.062 55.1632 247.414 55.2928V55.3216C248.235 55.4224 248.638 55.8616 248.638 56.5384C248.638 57.4384 248.026 58.072 246.666 58.072ZM249.759 57.548C249.987 56.636 250.239 55.448 250.359 54.608H251.487L251.571 54.74C251.355 55.592 250.923 56.684 250.539 57.548H249.759ZM253.642 56V47.432H256.282C258.862 47.432 260.506 48.884 260.506 51.632C260.506 54.524 258.85 56 256.03 56H253.642ZM254.722 55.076H255.886C258.202 55.076 259.366 53.924 259.366 51.668C259.366 49.388 258.19 48.356 256.126 48.356H254.722V55.076ZM261.243 58L263.252 52.8376H263.835L265.837 58H265.167L264.548 56.4088H262.511L261.899 58H261.243ZM262.727 55.8328H264.354L263.778 54.2776C263.735 54.1624 263.583 53.6872 263.533 53.5072C263.461 53.8024 263.367 54.112 263.31 54.2776L262.727 55.8328ZM271.106 57.896C272.426 56.276 273.122 54.296 273.122 52.28C273.122 50.228 272.438 48.212 271.094 46.592H272.09C273.53 48.152 274.19 50.18 274.19 52.292C274.19 54.38 273.53 56.384 272.09 57.896H271.106Z" fill="#E0E0E0"/>
<rect x="281.5" y="24.5" width="53" height="53" fill="#896409"/>
<rect x="281.5" y="24.5" width="53" height="53" stroke="#E0E0E0"/>
<path d="M288.909 57.896C287.469 56.384 286.809 54.38 286.809 52.292C286.809 50.18 287.469 48.152 288.909 46.592H289.905C288.561 48.212 287.877 50.228 287.877 52.28C287.877 54.296 288.573 56.276 289.893 57.896H288.909ZM290.266 56L293.614 47.396H294.586L297.922 56H296.806L295.774 53.348H292.378L291.358 56H290.266ZM292.738 52.388H295.45L294.49 49.796C294.418 49.604 294.166 48.812 294.082 48.512C293.962 49.004 293.806 49.52 293.71 49.796L292.738 52.388ZM300.544 58V56.8336H298.082V56.2936L300.501 52.8304H301.156V56.2648H301.905V56.8336H301.156V58H300.544ZM298.701 56.2648H300.544V54.6448C300.544 54.148 300.558 53.824 300.58 53.5072H300.551C300.472 53.6872 300.342 53.9248 300.242 54.0688L298.701 56.2648ZM302.759 57.548C302.987 56.636 303.239 55.448 303.359 54.608H304.487L304.571 54.74C304.355 55.592 303.923 56.684 303.539 57.548H302.759ZM306.642 56V47.432H309.282C311.862 47.432 313.506 48.884 313.506 51.632C313.506 54.524 311.85 56 309.03 56H306.642ZM307.722 55.076H308.886C311.202 55.076 312.366 53.924 312.366 51.668C312.366 49.388 311.19 48.356 309.126 48.356H307.722V55.076ZM314.243 58L316.252 52.8376H316.835L318.837 58H318.167L317.548 56.4088H315.511L314.899 58H314.243ZM315.727 55.8328H317.354L316.778 54.2776C316.735 54.1624 316.583 53.6872 316.533 53.5072C316.461 53.8024 316.367 54.112 316.31 54.2776L315.727 55.8328ZM324.106 57.896C325.426 56.276 326.122 54.296 326.122 52.28C326.122 50.228 325.438 48.212 324.094 46.592H325.09C326.53 48.152 327.19 50.18 327.19 52.292C327.19 54.38 326.53 56.384 325.09 57.896H324.106Z" fill="#E0E0E0"/>
<rect x="228.5" y="77.5" width="53" height="53" stroke="#E0E0E0"/>
<path d="M239.822 110.896C238.382 109.384 237.722 107.38 237.722 105.292C237.722 103.18 238.382 101.152 239.822 99.592H240.818C239.474 101.212 238.79 103.228 238.79 105.28C238.79 107.296 239.486 109.276 240.806 110.896H239.822ZM241.179 109L244.527 100.396H245.499L248.835 109H247.719L246.687 106.348H243.291L242.271 109H241.179ZM243.651 105.388H246.363L245.403 102.796C245.331 102.604 245.079 101.812 244.995 101.512C244.875 102.004 244.719 102.52 244.623 102.796L243.651 105.388ZM250.579 111.072C250.039 111.072 249.592 111 249.167 110.791V110.201C249.599 110.417 250.125 110.539 250.586 110.539C251.507 110.539 251.889 110.158 251.889 109.524C251.889 108.883 251.356 108.617 250.449 108.617H249.952V108.077H250.456C251.299 108.077 251.745 107.688 251.745 107.105C251.745 106.608 251.385 106.32 250.809 106.32C250.255 106.32 249.895 106.5 249.513 106.752L249.196 106.32C249.563 106.032 250.111 105.787 250.802 105.787C251.875 105.787 252.393 106.327 252.393 107.062C252.393 107.753 251.975 108.163 251.327 108.293V108.322C252.148 108.422 252.551 108.862 252.551 109.538C252.551 110.438 251.939 111.072 250.579 111.072ZM253.672 110.548C253.9 109.636 254.152 108.448 254.272 107.608H255.4L255.484 107.74C255.268 108.592 254.836 109.684 254.452 110.548H253.672ZM258.827 109L256.391 102.568H257.519L258.887 106.36C259.079 106.888 259.331 107.668 259.403 108.064H259.451C259.535 107.668 259.811 106.876 259.991 106.36L261.359 102.568H262.487L260.039 109H258.827ZM264.22 111.072C263.68 111.072 263.233 111 262.808 110.791V110.201C263.24 110.417 263.766 110.539 264.227 110.539C265.148 110.539 265.53 110.158 265.53 109.524C265.53 108.883 264.997 108.617 264.09 108.617H263.593V108.077H264.097C264.94 108.077 265.386 107.688 265.386 107.105C265.386 106.608 265.026 106.32 264.45 106.32C263.896 106.32 263.536 106.5 263.154 106.752L262.837 106.32C263.204 106.032 263.752 105.787 264.443 105.787C265.516 105.787 266.034 106.327 266.034 107.062C266.034 107.753 265.616 108.163 264.968 108.293V108.322C265.789 108.422 266.192 108.862 266.192 109.538C266.192 110.438 265.58 111.072 264.22 111.072ZM267.193 110.896C268.513 109.276 269.209 107.296 269.209 105.28C269.209 103.228 268.525 101.212 267.181 99.592H268.177C269.617 101.152 270.277 103.18 270.277 105.292C270.277 107.38 269.617 109.384 268.177 110.896H267.193Z" fill="#E0E0E0"/>
<rect x="281.5" y="77.5" width="53" height="53" stroke="#E0E0E0"/>
<path d="M292.822 110.896C291.382 109.384 290.722 107.38 290.722 105.292C290.722 103.18 291.382 101.152 292.822 99.592H293.818C292.474 101.212 291.79 103.228 291.79 105.28C291.79 107.296 292.486 109.276 293.806 110.896H292.822ZM294.179 109L297.527 100.396H298.499L301.835 109H300.719L299.687 106.348H296.291L295.271 109H294.179ZM296.651 105.388H299.363L298.403 102.796C298.331 102.604 298.079 101.812 297.995 101.512C297.875 102.004 297.719 102.52 297.623 102.796L296.651 105.388ZM304.457 111V109.834H301.995V109.294L304.414 105.83H305.069V109.265H305.818V109.834H305.069V111H304.457ZM302.614 109.265H304.457V107.645C304.457 107.148 304.471 106.824 304.493 106.507H304.464C304.385 106.687 304.255 106.925 304.155 107.069L302.614 109.265ZM306.672 110.548C306.9 109.636 307.152 108.448 307.272 107.608H308.4L308.484 107.74C308.268 108.592 307.836 109.684 307.452 110.548H306.672ZM311.827 109L309.391 102.568H310.519L311.887 106.36C312.079 106.888 312.331 107.668 312.403 108.064H312.451C312.535 107.668 312.811 106.876 312.991 106.36L314.359 102.568H315.487L313.039 109H311.827ZM318.098 111V109.834H315.636V109.294L318.055 105.83H318.71V109.265H319.459V109.834H318.71V111H318.098ZM316.255 109.265H318.098V107.645C318.098 107.148 318.112 106.824 318.134 106.507H318.105C318.026 106.687 317.896 106.925 317.796 107.069L316.255 109.265ZM320.193 110.896C321.513 109.276 322.209 107.296 322.209 105.28C322.209 103.228 321.525 101.212 320.181 99.592H321.177C322.617 101.152 323.277 103.18 323.277 105.292C323.277 107.38 322.617 109.384 321.177 110.896H320.193Z" fill="#E0E0E0"/>
<path d="M4.96267 147.568H6.11467L3.36667 150.664L6.34267 154H5.11867L2.21467 150.736V154H1.15867V147.568H2.21467V150.688L4.96267 147.568ZM12.8679 150.772C12.8679 151.308 12.7959 151.784 12.6519 152.2C12.5159 152.608 12.3159 152.956 12.0519 153.244C11.7959 153.532 11.4799 153.752 11.1039 153.904C10.7359 154.048 10.3239 154.12 9.86786 154.12C9.44386 154.12 9.05186 154.048 8.69186 153.904C8.33186 153.752 8.01986 153.532 7.75586 153.244C7.49186 152.956 7.28386 152.608 7.13186 152.2C6.98786 151.784 6.91586 151.308 6.91586 150.772C6.91586 150.06 7.03586 149.46 7.27586 148.972C7.51586 148.476 7.85986 148.1 8.30786 147.844C8.75586 147.58 9.28786 147.448 9.90386 147.448C10.4879 147.448 10.9999 147.58 11.4399 147.844C11.8879 148.1 12.2359 148.476 12.4839 148.972C12.7399 149.46 12.8679 150.06 12.8679 150.772ZM8.00786 150.772C8.00786 151.276 8.07186 151.716 8.19986 152.092C8.33586 152.46 8.54386 152.744 8.82386 152.944C9.10386 153.144 9.45986 153.244 9.89186 153.244C10.3239 153.244 10.6799 153.144 10.9599 152.944C11.2399 152.744 11.4439 152.46 11.5719 152.092C11.7079 151.716 11.7759 151.276 11.7759 150.772C11.7759 150.26 11.7079 149.824 11.5719 149.464C11.4359 149.104 11.2279 148.828 10.9479 148.636C10.6759 148.436 10.3199 148.336 9.87986 148.336C9.22386 148.336 8.74786 148.552 8.45186 148.984C8.15586 149.416 8.00786 150.012 8.00786 150.772ZM17.6015 147.448C18.3935 147.448 19.0295 147.724 19.5095 148.276C19.9975 148.828 20.2415 149.66 20.2415 150.772C20.2415 151.5 20.1295 152.116 19.9055 152.62C19.6895 153.116 19.3815 153.492 18.9815 153.748C18.5895 153.996 18.1255 154.12 17.5895 154.12C17.2615 154.12 16.9695 154.076 16.7135 153.988C16.4575 153.9 16.2375 153.788 16.0535 153.652C15.8775 153.508 15.7255 153.352 15.5975 153.184H15.5255C15.5415 153.32 15.5575 153.492 15.5735 153.7C15.5895 153.908 15.5975 154.088 15.5975 154.24V156.88H14.5415V147.568H15.4055L15.5495 148.444H15.5975C15.7255 148.26 15.8775 148.092 16.0535 147.94C16.2375 147.788 16.4535 147.668 16.7015 147.58C16.9575 147.492 17.2575 147.448 17.6015 147.448ZM17.4095 148.336C16.9775 148.336 16.6295 148.42 16.3655 148.588C16.1015 148.748 15.9095 148.992 15.7895 149.32C15.6695 149.648 15.6055 150.064 15.5975 150.568V150.772C15.5975 151.3 15.6535 151.748 15.7655 152.116C15.8775 152.484 16.0655 152.764 16.3295 152.956C16.6015 153.148 16.9695 153.244 17.4335 153.244C17.8255 153.244 18.1455 153.136 18.3935 152.92C18.6495 152.704 18.8375 152.412 18.9575 152.044C19.0855 151.668 19.1495 151.24 19.1495 150.76C19.1495 150.024 19.0055 149.436 18.7175 148.996C18.4375 148.556 18.0015 148.336 17.4095 148.336ZM26.2471 148.456H24.1471V154H23.1031V148.456H21.0271V147.568H26.2471V148.456ZM29.881 147.448C30.433 147.448 30.905 147.568 31.297 147.808C31.697 148.048 32.001 148.388 32.209 148.828C32.425 149.26 32.533 149.768 32.533 150.352V150.988H28.129C28.145 151.716 28.329 152.272 28.681 152.656C29.041 153.032 29.541 153.22 30.181 153.22C30.589 153.22 30.949 153.184 31.261 153.112C31.581 153.032 31.909 152.92 32.245 152.776V153.7C31.917 153.844 31.593 153.948 31.273 154.012C30.953 154.084 30.573 154.12 30.133 154.12C29.525 154.12 28.985 153.996 28.513 153.748C28.049 153.5 27.685 153.132 27.421 152.644C27.165 152.148 27.037 151.544 27.037 150.832C27.037 150.128 27.153 149.524 27.385 149.02C27.625 148.516 27.957 148.128 28.381 147.856C28.813 147.584 29.313 147.448 29.881 147.448ZM29.869 148.312C29.365 148.312 28.965 148.476 28.669 148.804C28.381 149.124 28.209 149.572 28.153 150.148H31.429C31.429 149.78 31.373 149.46 31.261 149.188C31.149 148.916 30.977 148.704 30.745 148.552C30.521 148.392 30.229 148.312 29.869 148.312ZM41.8864 147.568L39.2344 150.688L42.1144 154H40.9144L38.1304 150.736V154H37.1464V150.736L34.3624 154H33.1624L36.0424 150.688L33.3904 147.568H34.5424L37.1464 150.688V147.568H38.1304V150.688L40.7464 147.568H41.8864ZM44.1664 151.492C44.1664 151.564 44.1624 151.668 44.1544 151.804C44.1544 151.932 44.1504 152.072 44.1424 152.224C44.1344 152.368 44.1264 152.508 44.1184 152.644C44.1104 152.772 44.1024 152.876 44.0944 152.956L47.5384 147.568H48.8344V154H47.8504V150.208C47.8504 150.08 47.8504 149.912 47.8504 149.704C47.8584 149.496 47.8664 149.292 47.8744 149.092C47.8824 148.884 47.8904 148.728 47.8984 148.624L44.4784 154H43.1704V147.568H44.1664V151.492ZM6.27531 170.896C4.83531 169.384 4.17531 167.38 4.17531 165.292C4.17531 163.18 4.83531 161.152 6.27531 159.592H7.27131C5.92731 161.212 5.24331 163.228 5.24331 165.28C5.24331 167.296 5.93931 169.276 7.25931 170.896H6.27531ZM10.6208 169.12C9.61281 169.12 8.73681 168.688 8.73681 167.128V163.384H7.82481V162.88L8.74881 162.46L9.16881 161.092H9.79281V162.568H11.6528V163.384H9.79281V167.104C9.79281 167.884 10.2128 168.256 10.8008 168.256C11.1128 168.256 11.4968 168.196 11.7008 168.124V168.928C11.4728 169.036 11.0048 169.12 10.6208 169.12ZM15.2568 169.12C13.7088 169.12 12.9168 168.412 12.9168 166.78V162.568H13.9848V166.708C13.9848 167.74 14.4408 168.244 15.4128 168.244C16.8408 168.244 17.3088 167.416 17.3088 165.916V162.568H18.3648V169H17.5008L17.3448 168.148H17.2968C16.8768 168.82 16.0848 169.12 15.2568 169.12ZM20.4067 171.88V162.568H21.2707L21.4147 163.444H21.4627C21.8467 162.892 22.4227 162.448 23.4667 162.448C25.0507 162.448 26.1067 163.552 26.1067 165.772C26.1067 167.968 25.0507 169.12 23.4547 169.12C22.4587 169.12 21.8347 168.688 21.4627 168.184H21.3907C21.4267 168.46 21.4627 168.94 21.4627 169.24V171.88H20.4067ZM23.2987 168.244C24.4627 168.244 25.0147 167.2 25.0147 165.76C25.0147 164.296 24.4627 163.336 23.2747 163.336C21.9667 163.336 21.4867 164.068 21.4627 165.568V165.772C21.4627 167.356 21.8947 168.244 23.2987 168.244ZM27.7778 169V159.88H28.8338V169H27.7778ZM33.6076 169.12C31.7716 169.12 30.5116 167.98 30.5116 165.832C30.5116 163.72 31.6516 162.448 33.3556 162.448C34.9996 162.448 36.0076 163.6 36.0076 165.352V165.988H31.6036C31.6396 167.44 32.3716 168.22 33.6556 168.22C34.4716 168.22 35.0476 168.064 35.7196 167.776V168.7C35.0596 168.988 34.4836 169.12 33.6076 169.12ZM31.6276 165.148H34.9036C34.9036 164.056 34.4116 163.312 33.3436 163.312C32.3356 163.312 31.7356 163.996 31.6276 165.148ZM39.265 169.12C38.365 169.12 37.741 168.976 37.249 168.712V167.752C37.753 168.004 38.533 168.268 39.289 168.268C40.357 168.268 40.813 167.896 40.813 167.32C40.813 166.84 40.489 166.552 39.229 166.072C37.981 165.592 37.237 165.208 37.237 164.152C37.237 163.06 38.209 162.448 39.649 162.448C40.429 162.448 41.101 162.616 41.701 162.88L41.341 163.72C40.801 163.492 40.201 163.312 39.577 163.312C38.713 163.312 38.245 163.612 38.245 164.092C38.245 164.632 38.665 164.836 39.901 165.316C41.113 165.784 41.833 166.192 41.833 167.224C41.833 168.472 40.837 169.12 39.265 169.12ZM42.7392 170.896C44.0592 169.276 44.7552 167.296 44.7552 165.28C44.7552 163.228 44.0712 161.212 42.7272 159.592H43.7232C45.1632 161.152 45.8232 163.18 45.8232 165.292C45.8232 167.38 45.1632 169.384 43.7232 170.896H42.7392Z" fill="#E0E0E0"/>
<path d="M378.48 51.252V50.316H389.52V51.252H378.48ZM395.829 47.448C396.317 47.448 396.741 47.516 397.101 47.652C397.461 47.78 397.741 47.972 397.941 48.228C398.141 48.476 398.241 48.78 398.241 49.14C398.241 49.532 398.133 49.844 397.917 50.076C397.701 50.3 397.405 50.464 397.029 50.568V50.616C397.285 50.688 397.521 50.788 397.737 50.916C397.953 51.044 398.125 51.212 398.253 51.42C398.389 51.628 398.457 51.896 398.457 52.224C398.457 52.576 398.357 52.896 398.157 53.184C397.965 53.472 397.665 53.7 397.257 53.868C396.857 54.036 396.341 54.12 395.709 54.12C395.405 54.12 395.113 54.104 394.833 54.072C394.561 54.04 394.313 53.992 394.089 53.928C393.873 53.864 393.681 53.788 393.513 53.7V52.752C393.785 52.88 394.105 52.996 394.473 53.1C394.849 53.204 395.257 53.256 395.697 53.256C396.017 53.256 396.305 53.22 396.561 53.148C396.825 53.076 397.033 52.964 397.185 52.812C397.337 52.652 397.413 52.436 397.413 52.164C397.413 51.916 397.345 51.716 397.209 51.564C397.073 51.404 396.869 51.284 396.597 51.204C396.333 51.124 395.993 51.084 395.577 51.084H394.713V50.22H395.409C395.961 50.22 396.401 50.148 396.729 50.004C397.065 49.852 397.233 49.596 397.233 49.236C397.233 48.932 397.105 48.704 396.849 48.552C396.601 48.4 396.241 48.324 395.769 48.324C395.417 48.324 395.105 48.36 394.833 48.432C394.569 48.496 394.277 48.596 393.957 48.732L393.585 47.892C393.929 47.74 394.289 47.628 394.665 47.556C395.041 47.484 395.429 47.448 395.829 47.448ZM402.456 47.46C403.24 47.46 403.82 47.632 404.196 47.976C404.572 48.32 404.76 48.868 404.76 49.62V54H403.992L403.788 53.088H403.74C403.556 53.32 403.364 53.516 403.164 53.676C402.972 53.828 402.748 53.94 402.492 54.012C402.244 54.084 401.94 54.12 401.58 54.12C401.196 54.12 400.848 54.052 400.536 53.916C400.232 53.78 399.992 53.572 399.816 53.292C399.64 53.004 399.552 52.644 399.552 52.212C399.552 51.572 399.804 51.08 400.308 50.736C400.812 50.384 401.588 50.192 402.636 50.16L403.728 50.124V49.74C403.728 49.204 403.612 48.832 403.38 48.624C403.148 48.416 402.82 48.312 402.396 48.312C402.06 48.312 401.74 48.364 401.436 48.468C401.132 48.564 400.848 48.676 400.584 48.804L400.26 48.012C400.54 47.86 400.872 47.732 401.256 47.628C401.64 47.516 402.04 47.46 402.456 47.46ZM402.768 50.892C401.968 50.924 401.412 51.052 401.1 51.276C400.796 51.5 400.644 51.816 400.644 52.224C400.644 52.584 400.752 52.848 400.968 53.016C401.192 53.184 401.476 53.268 401.82 53.268C402.364 53.268 402.816 53.12 403.176 52.824C403.536 52.52 403.716 52.056 403.716 51.432V50.856L402.768 50.892ZM410.671 47.568V48.456H407.803V54H406.747V47.568H410.671ZM417.413 50.772C417.413 51.308 417.341 51.784 417.197 52.2C417.061 52.608 416.861 52.956 416.597 53.244C416.341 53.532 416.025 53.752 415.649 53.904C415.281 54.048 414.869 54.12 414.413 54.12C413.989 54.12 413.597 54.048 413.237 53.904C412.877 53.752 412.565 53.532 412.301 53.244C412.037 52.956 411.829 52.608 411.677 52.2C411.533 51.784 411.461 51.308 411.461 50.772C411.461 50.06 411.581 49.46 411.821 48.972C412.061 48.476 412.405 48.1 412.853 47.844C413.301 47.58 413.833 47.448 414.449 47.448C415.033 47.448 415.545 47.58 415.985 47.844C416.433 48.1 416.781 48.476 417.029 48.972C417.285 49.46 417.413 50.06 417.413 50.772ZM412.553 50.772C412.553 51.276 412.617 51.716 412.745 52.092C412.881 52.46 413.089 52.744 413.369 52.944C413.649 53.144 414.005 53.244 414.437 53.244C414.869 53.244 415.225 53.144 415.505 52.944C415.785 52.744 415.989 52.46 416.117 52.092C416.253 51.716 416.321 51.276 416.321 50.772C416.321 50.26 416.253 49.824 416.117 49.464C415.981 49.104 415.773 48.828 415.493 48.636C415.221 48.436 414.865 48.336 414.425 48.336C413.769 48.336 413.293 48.552 412.997 48.984C412.701 49.416 412.553 50.012 412.553 50.772ZM423.982 54H422.914V48.444H421.018C420.938 49.46 420.838 50.328 420.718 51.048C420.598 51.76 420.446 52.34 420.262 52.788C420.078 53.236 419.858 53.564 419.602 53.772C419.346 53.98 419.046 54.084 418.702 54.084C418.598 54.084 418.494 54.076 418.39 54.06C418.294 54.052 418.214 54.032 418.15 54V53.208C418.198 53.224 418.25 53.236 418.306 53.244C418.362 53.252 418.418 53.256 418.474 53.256C418.65 53.256 418.81 53.184 418.954 53.04C419.098 52.896 419.226 52.676 419.338 52.38C419.458 52.084 419.566 51.712 419.662 51.264C419.758 50.808 419.842 50.272 419.914 49.656C419.986 49.04 420.05 48.344 420.106 47.568H423.982V54ZM431.616 50.772C431.616 51.308 431.544 51.784 431.4 52.2C431.264 52.608 431.064 52.956 430.8 53.244C430.544 53.532 430.228 53.752 429.852 53.904C429.484 54.048 429.072 54.12 428.616 54.12C428.192 54.12 427.8 54.048 427.44 53.904C427.08 53.752 426.768 53.532 426.504 53.244C426.24 52.956 426.032 52.608 425.88 52.2C425.736 51.784 425.664 51.308 425.664 50.772C425.664 50.06 425.784 49.46 426.024 48.972C426.264 48.476 426.608 48.1 427.056 47.844C427.504 47.58 428.036 47.448 428.652 47.448C429.236 47.448 429.748 47.58 430.188 47.844C430.636 48.1 430.984 48.476 431.232 48.972C431.488 49.46 431.616 50.06 431.616 50.772ZM426.756 50.772C426.756 51.276 426.82 51.716 426.948 52.092C427.084 52.46 427.292 52.744 427.572 52.944C427.852 53.144 428.208 53.244 428.64 53.244C429.072 53.244 429.428 53.144 429.708 52.944C429.988 52.744 430.192 52.46 430.32 52.092C430.456 51.716 430.524 51.276 430.524 50.772C430.524 50.26 430.456 49.824 430.32 49.464C430.184 49.104 429.976 48.828 429.696 48.636C429.424 48.436 429.068 48.336 428.628 48.336C427.972 48.336 427.496 48.552 427.2 48.984C426.904 49.416 426.756 50.012 426.756 50.772ZM438.462 49.188C438.462 49.588 438.342 49.9 438.102 50.124C437.862 50.348 437.554 50.5 437.178 50.58V50.628C437.578 50.684 437.926 50.828 438.222 51.06C438.518 51.284 438.666 51.636 438.666 52.116C438.666 52.388 438.614 52.64 438.51 52.872C438.414 53.104 438.262 53.304 438.054 53.472C437.846 53.64 437.578 53.772 437.25 53.868C436.922 53.956 436.526 54 436.062 54H433.29V47.568H436.05C436.506 47.568 436.914 47.62 437.274 47.724C437.642 47.82 437.93 47.988 438.138 48.228C438.354 48.46 438.462 48.78 438.462 49.188ZM437.574 52.116C437.574 51.748 437.434 51.484 437.154 51.324C436.874 51.164 436.462 51.084 435.918 51.084H434.346V53.148H435.942C436.47 53.148 436.874 53.072 437.154 52.92C437.434 52.76 437.574 52.492 437.574 52.116ZM437.394 49.32C437.394 49.016 437.282 48.796 437.058 48.66C436.842 48.516 436.486 48.444 435.99 48.444H434.346V50.208H435.798C436.318 50.208 436.714 50.136 436.986 49.992C437.258 49.848 437.394 49.624 437.394 49.32ZM445.796 50.772C445.796 51.308 445.724 51.784 445.58 52.2C445.444 52.608 445.244 52.956 444.98 53.244C444.724 53.532 444.408 53.752 444.032 53.904C443.664 54.048 443.252 54.12 442.796 54.12C442.372 54.12 441.98 54.048 441.62 53.904C441.26 53.752 440.948 53.532 440.684 53.244C440.42 52.956 440.212 52.608 440.06 52.2C439.916 51.784 439.844 51.308 439.844 50.772C439.844 50.06 439.964 49.46 440.204 48.972C440.444 48.476 440.788 48.1 441.236 47.844C441.684 47.58 442.216 47.448 442.832 47.448C443.416 47.448 443.928 47.58 444.368 47.844C444.816 48.1 445.164 48.476 445.412 48.972C445.668 49.46 445.796 50.06 445.796 50.772ZM440.936 50.772C440.936 51.276 441 51.716 441.128 52.092C441.264 52.46 441.472 52.744 441.752 52.944C442.032 53.144 442.388 53.244 442.82 53.244C443.252 53.244 443.608 53.144 443.888 52.944C444.168 52.744 444.372 52.46 444.5 52.092C444.636 51.716 444.704 51.276 444.704 50.772C444.704 50.26 444.636 49.824 444.5 49.464C444.364 49.104 444.156 48.828 443.876 48.636C443.604 48.436 443.248 48.336 442.808 48.336C442.152 48.336 441.676 48.552 441.38 48.984C441.084 49.416 440.936 50.012 440.936 50.772ZM451.273 47.568H452.425L449.677 50.664L452.653 54H451.429L448.525 50.736V54H447.469V47.568H448.525V50.688L451.273 47.568ZM458.498 55.896C457.058 54.384 456.398 52.38 456.398 50.292C456.398 48.18 457.058 46.152 458.498 44.592H459.494C458.15 46.212 457.466 48.228 457.466 50.28C457.466 52.296 458.162 54.276 459.482 55.896H458.498ZM460.875 54V44.88H461.931V47.556C461.931 47.868 461.907 48.204 461.871 48.456H461.943C462.351 47.796 463.119 47.46 463.947 47.46C465.507 47.46 466.299 48.168 466.299 49.812V54H465.255V49.884C465.255 48.852 464.799 48.336 463.815 48.336C462.375 48.336 461.931 49.176 461.931 50.676V54H460.875ZM471.029 54.12C469.193 54.12 467.933 52.98 467.933 50.832C467.933 48.72 469.073 47.448 470.777 47.448C472.421 47.448 473.429 48.6 473.429 50.352V50.988H469.025C469.061 52.44 469.793 53.22 471.077 53.22C471.893 53.22 472.469 53.064 473.141 52.776V53.7C472.481 53.988 471.905 54.12 471.029 54.12ZM469.049 50.148H472.325C472.325 49.056 471.833 48.312 470.765 48.312C469.757 48.312 469.157 48.996 469.049 50.148ZM476.627 54.12C475.463 54.12 474.599 53.52 474.599 52.212C474.599 50.928 475.583 50.22 477.683 50.16L478.775 50.124V49.74C478.775 48.672 478.283 48.312 477.443 48.312C476.771 48.312 476.159 48.552 475.631 48.804L475.307 48.012C475.871 47.712 476.663 47.46 477.503 47.46C479.063 47.46 479.807 48.12 479.807 49.62V54H479.039L478.835 53.088H478.787C478.223 53.796 477.707 54.12 476.627 54.12ZM476.867 53.268C477.947 53.268 478.763 52.68 478.763 51.432V50.856L477.815 50.892C476.207 50.952 475.691 51.408 475.691 52.224C475.691 52.944 476.171 53.268 476.867 53.268ZM484.073 54.12C482.477 54.12 481.433 53.004 481.433 50.796C481.433 48.588 482.489 47.448 484.085 47.448C485.081 47.448 485.681 47.868 486.077 48.396H486.149C486.125 48.192 486.077 47.688 486.077 47.448V44.88H487.133V54H486.281L486.125 53.136H486.077C485.693 53.688 485.081 54.12 484.073 54.12ZM484.241 53.244C485.597 53.244 486.089 52.5 486.089 51V50.808C486.089 49.212 485.657 48.324 484.229 48.324C483.089 48.324 482.525 49.296 482.525 50.82C482.525 52.356 483.089 53.244 484.241 53.244ZM489.716 46.5C489.368 46.5 489.092 46.284 489.092 45.828C489.092 45.36 489.368 45.156 489.716 45.156C490.04 45.156 490.328 45.36 490.328 45.828C490.328 46.284 490.04 46.5 489.716 46.5ZM489.176 54V47.568H490.232V54H489.176ZM492.27 54V47.568H493.122L493.278 48.444H493.338C493.758 47.772 494.55 47.448 495.366 47.448C496.902 47.448 497.694 48.156 497.694 49.812V54H496.65V49.884C496.65 48.852 496.194 48.336 495.21 48.336C493.782 48.336 493.326 49.164 493.326 50.664V54H492.27ZM502.148 56.88C501.212 56.88 500.444 56.748 499.832 56.472V55.5C500.444 55.824 501.284 56.004 502.208 56.004C503.312 56.004 503.984 55.32 503.984 54.192V53.94C503.984 53.748 504.008 53.292 504.02 53.148H503.972C503.528 53.808 502.856 54.12 501.98 54.12C500.312 54.12 499.328 52.896 499.328 50.796C499.328 48.744 500.312 47.448 501.968 47.448C502.808 47.448 503.504 47.76 503.984 48.42H504.044L504.188 47.568H505.028V54.108C505.028 55.944 504.116 56.88 502.148 56.88ZM502.136 53.256C503.432 53.256 503.996 52.596 503.996 51.048V50.796C503.996 49.044 503.408 48.336 502.112 48.336C501.032 48.336 500.42 49.224 500.42 50.808C500.42 52.392 501.008 53.256 502.136 53.256ZM506.423 55.896C507.743 54.276 508.439 52.296 508.439 50.28C508.439 48.228 507.755 46.212 506.411 44.592H507.407C508.847 46.152 509.507 48.18 509.507 50.292C509.507 52.38 508.847 54.384 507.407 55.896H506.423Z" fill="#E0E0E0"/>
<path d="M123.176 4.432H124.184V9.136C124.184 9.336 124.18 9.556 124.172 9.796C124.172 10.028 124.168 10.26 124.16 10.492C124.152 10.724 124.14 10.932 124.124 11.116C124.116 11.292 124.108 11.428 124.1 11.524H124.148L128.864 4.432H130.064V13H129.056V8.344C129.056 8.128 129.06 7.896 129.068 7.648C129.076 7.392 129.084 7.148 129.092 6.916C129.108 6.676 129.12 6.464 129.128 6.28C129.136 6.096 129.144 5.96 129.152 5.872H129.104L124.376 13H123.176V4.432ZM139.131 6.568V13H138.183V8.896C138.183 8.728 138.187 8.552 138.195 8.368C138.211 8.184 138.227 8.004 138.243 7.828H138.207L136.107 13H135.219L133.179 7.828H133.143C133.159 8.004 133.167 8.184 133.167 8.368C133.175 8.552 133.179 8.74 133.179 8.932V13H132.231V6.568H133.635L135.663 11.74L137.727 6.568H139.131ZM141.58 13H140.356L142.192 10.3C141.944 10.236 141.704 10.136 141.472 10C141.24 9.856 141.052 9.66 140.908 9.412C140.764 9.156 140.692 8.84 140.692 8.464C140.692 7.848 140.9 7.38 141.316 7.06C141.732 6.732 142.284 6.568 142.972 6.568H145.852V13H144.796V10.444H143.236L141.58 13ZM141.712 8.476C141.712 8.844 141.848 9.12 142.12 9.304C142.4 9.48 142.788 9.568 143.284 9.568H144.796V7.444H143.08C142.592 7.444 142.24 7.54 142.024 7.732C141.816 7.924 141.712 8.172 141.712 8.476ZM156.596 9.772C156.596 10.308 156.524 10.784 156.38 11.2C156.244 11.608 156.044 11.956 155.78 12.244C155.524 12.532 155.208 12.752 154.832 12.904C154.464 13.048 154.052 13.12 153.596 13.12C153.172 13.12 152.78 13.048 152.42 12.904C152.06 12.752 151.748 12.532 151.484 12.244C151.22 11.956 151.012 11.608 150.86 11.2C150.716 10.784 150.644 10.308 150.644 9.772C150.644 9.06 150.764 8.46 151.004 7.972C151.244 7.476 151.588 7.1 152.036 6.844C152.484 6.58 153.016 6.448 153.632 6.448C154.216 6.448 154.728 6.58 155.168 6.844C155.616 7.1 155.964 7.476 156.212 7.972C156.468 8.46 156.596 9.06 156.596 9.772ZM151.736 9.772C151.736 10.276 151.8 10.716 151.928 11.092C152.064 11.46 152.272 11.744 152.552 11.944C152.832 12.144 153.188 12.244 153.62 12.244C154.052 12.244 154.408 12.144 154.688 11.944C154.968 11.744 155.172 11.46 155.3 11.092C155.436 10.716 155.504 10.276 155.504 9.772C155.504 9.26 155.436 8.824 155.3 8.464C155.164 8.104 154.956 7.828 154.676 7.636C154.404 7.436 154.048 7.336 153.608 7.336C152.952 7.336 152.476 7.552 152.18 7.984C151.884 8.416 151.736 9.012 151.736 9.772ZM162.593 7.456H160.493V13H159.449V7.456H157.373V6.568H162.593V7.456ZM164.916 6.568V9.244H168.408V6.568H169.464V13H168.408V10.132H164.916V13H163.86V6.568H164.916ZM177.092 9.772C177.092 10.308 177.02 10.784 176.876 11.2C176.74 11.608 176.54 11.956 176.276 12.244C176.02 12.532 175.704 12.752 175.328 12.904C174.96 13.048 174.548 13.12 174.092 13.12C173.668 13.12 173.276 13.048 172.916 12.904C172.556 12.752 172.244 12.532 171.98 12.244C171.716 11.956 171.508 11.608 171.356 11.2C171.212 10.784 171.14 10.308 171.14 9.772C171.14 9.06 171.26 8.46 171.5 7.972C171.74 7.476 172.084 7.1 172.532 6.844C172.98 6.58 173.512 6.448 174.128 6.448C174.712 6.448 175.224 6.58 175.664 6.844C176.112 7.1 176.46 7.476 176.708 7.972C176.964 8.46 177.092 9.06 177.092 9.772ZM172.232 9.772C172.232 10.276 172.296 10.716 172.424 11.092C172.56 11.46 172.768 11.744 173.048 11.944C173.328 12.144 173.684 12.244 174.116 12.244C174.548 12.244 174.904 12.144 175.184 11.944C175.464 11.744 175.668 11.46 175.796 11.092C175.932 10.716 176 10.276 176 9.772C176 9.26 175.932 8.824 175.796 8.464C175.66 8.104 175.452 7.828 175.172 7.636C174.9 7.436 174.544 7.336 174.104 7.336C173.448 7.336 172.972 7.552 172.676 7.984C172.38 8.416 172.232 9.012 172.232 9.772ZM187.49 6.568V13H178.766V6.568H179.822V12.112H182.594V6.568H183.65V12.112H186.434V6.568H187.49ZM192.031 6.448C192.583 6.448 193.055 6.568 193.447 6.808C193.847 7.048 194.151 7.388 194.359 7.828C194.575 8.26 194.683 8.768 194.683 9.352V9.988H190.279C190.295 10.716 190.479 11.272 190.831 11.656C191.191 12.032 191.691 12.22 192.331 12.22C192.739 12.22 193.099 12.184 193.411 12.112C193.731 12.032 194.059 11.92 194.395 11.776V12.7C194.067 12.844 193.743 12.948 193.423 13.012C193.103 13.084 192.723 13.12 192.283 13.12C191.675 13.12 191.135 12.996 190.663 12.748C190.199 12.5 189.835 12.132 189.571 11.644C189.315 11.148 189.187 10.544 189.187 9.832C189.187 9.128 189.303 8.524 189.535 8.02C189.775 7.516 190.107 7.128 190.531 6.856C190.963 6.584 191.463 6.448 192.031 6.448ZM192.019 7.312C191.515 7.312 191.115 7.476 190.819 7.804C190.531 8.124 190.359 8.572 190.303 9.148H193.579C193.579 8.78 193.523 8.46 193.411 8.188C193.299 7.916 193.127 7.704 192.895 7.552C192.671 7.392 192.379 7.312 192.019 7.312ZM197.377 6.568V9.244H200.869V6.568H201.925V13H200.869V10.132H197.377V13H196.321V6.568H197.377ZM204.957 10.492C204.957 10.564 204.953 10.668 204.945 10.804C204.945 10.932 204.941 11.072 204.933 11.224C204.925 11.368 204.917 11.508 204.909 11.644C204.901 11.772 204.893 11.876 204.885 11.956L208.329 6.568H209.625V13H208.641V9.208C208.641 9.08 208.641 8.912 208.641 8.704C208.649 8.496 208.657 8.292 208.665 8.092C208.673 7.884 208.681 7.728 208.689 7.624L205.269 13H203.961V6.568H204.957V10.492ZM212.068 13H210.844L212.68 10.3C212.432 10.236 212.192 10.136 211.96 10C211.728 9.856 211.54 9.66 211.396 9.412C211.252 9.156 211.18 8.84 211.18 8.464C211.18 7.848 211.388 7.38 211.804 7.06C212.22 6.732 212.772 6.568 213.46 6.568H216.34V13H215.284V10.444H213.724L212.068 13ZM212.2 8.476C212.2 8.844 212.336 9.12 212.608 9.304C212.888 9.48 213.276 9.568 213.772 9.568H215.284V7.444H213.568C213.08 7.444 212.728 7.54 212.512 7.732C212.304 7.924 212.2 8.172 212.2 8.476ZM223.053 14.896C221.613 13.384 220.953 11.38 220.953 9.292C220.953 7.18 221.613 5.152 223.053 3.592H224.049C222.705 5.212 222.021 7.228 222.021 9.28C222.021 11.296 222.717 13.276 224.037 14.896H223.053ZM225.43 13V6.568H226.294L226.414 7.744H226.462C226.87 7.036 227.53 6.448 228.43 6.448C228.67 6.448 228.97 6.472 229.186 6.52L229.054 7.492C228.85 7.444 228.574 7.408 228.358 7.408C227.362 7.408 226.486 8.272 226.486 9.568V13H225.43ZM233.123 13.12C231.287 13.12 230.027 11.98 230.027 9.832C230.027 7.72 231.167 6.448 232.871 6.448C234.515 6.448 235.523 7.6 235.523 9.352V9.988H231.119C231.155 11.44 231.887 12.22 233.171 12.22C233.987 12.22 234.563 12.064 235.235 11.776V12.7C234.575 12.988 233.999 13.12 233.123 13.12ZM231.143 9.148H234.419C234.419 8.056 233.927 7.312 232.859 7.312C231.851 7.312 231.251 7.996 231.143 9.148ZM237.161 13V3.88H238.217V13H237.161ZM241.814 13.12C240.65 13.12 239.786 12.52 239.786 11.212C239.786 9.928 240.77 9.22 242.87 9.16L243.962 9.124V8.74C243.962 7.672 243.47 7.312 242.63 7.312C241.958 7.312 241.346 7.552 240.818 7.804L240.494 7.012C241.058 6.712 241.85 6.46 242.69 6.46C244.25 6.46 244.994 7.12 244.994 8.62V13H244.226L244.022 12.088H243.974C243.41 12.796 242.894 13.12 241.814 13.12ZM242.054 12.268C243.134 12.268 243.95 11.68 243.95 10.432V9.856L243.002 9.892C241.394 9.952 240.878 10.408 240.878 11.224C240.878 11.944 241.358 12.268 242.054 12.268ZM248.949 13.12C247.941 13.12 247.065 12.688 247.065 11.128V7.384H246.153V6.88L247.077 6.46L247.497 5.092H248.121V6.568H249.981V7.384H248.121V11.104C248.121 11.884 248.541 12.256 249.129 12.256C249.441 12.256 249.825 12.196 250.029 12.124V12.928C249.801 13.036 249.333 13.12 248.949 13.12ZM251.857 5.5C251.509 5.5 251.233 5.284 251.233 4.828C251.233 4.36 251.509 4.156 251.857 4.156C252.181 4.156 252.469 4.36 252.469 4.828C252.469 5.284 252.181 5.5 251.857 5.5ZM251.317 13V6.568H252.373V13H251.317ZM257.003 13.12C255.299 13.12 254.051 11.908 254.051 9.772C254.051 7.648 255.191 6.448 257.039 6.448C258.779 6.448 260.003 7.648 260.003 9.772C260.003 11.908 258.839 13.12 257.003 13.12ZM257.027 12.244C258.323 12.244 258.911 11.296 258.911 9.772C258.911 8.248 258.323 7.336 257.015 7.336C255.707 7.336 255.143 8.248 255.143 9.772C255.143 11.296 255.719 12.244 257.027 12.244ZM261.676 13V6.568H262.528L262.684 7.444H262.744C263.164 6.772 263.956 6.448 264.772 6.448C266.308 6.448 267.1 7.156 267.1 8.812V13H266.056V8.884C266.056 7.852 265.6 7.336 264.616 7.336C263.188 7.336 262.732 8.164 262.732 9.664V13H261.676ZM272.211 13V6.568H273.063L273.219 7.444H273.279C273.699 6.772 274.491 6.448 275.307 6.448C276.843 6.448 277.635 7.156 277.635 8.812V13H276.591V8.884C276.591 7.852 276.135 7.336 275.151 7.336C273.723 7.336 273.267 8.164 273.267 9.664V13H272.211ZM281.189 13.12C280.025 13.12 279.161 12.52 279.161 11.212C279.161 9.928 280.145 9.22 282.245 9.16L283.337 9.124V8.74C283.337 7.672 282.845 7.312 282.005 7.312C281.333 7.312 280.721 7.552 280.193 7.804L279.869 7.012C280.433 6.712 281.225 6.46 282.065 6.46C283.625 6.46 284.369 7.12 284.369 8.62V13H283.601L283.397 12.088H283.349C282.785 12.796 282.269 13.12 281.189 13.12ZM281.429 12.268C282.509 12.268 283.325 11.68 283.325 10.432V9.856L282.377 9.892C280.769 9.952 280.253 10.408 280.253 11.224C280.253 11.944 280.733 12.268 281.429 12.268ZM286.356 13V6.568H287.208L287.364 7.444H287.424C287.82 6.772 288.552 6.448 289.32 6.448C290.304 6.448 290.976 6.796 291.288 7.528H291.348C291.78 6.796 292.572 6.448 293.412 6.448C294.864 6.448 295.584 7.156 295.584 8.812V13H294.54V8.86C294.54 7.852 294.12 7.336 293.232 7.336C291.984 7.336 291.492 8.08 291.492 9.448V13H290.448V8.86C290.448 7.852 290.028 7.336 289.128 7.336C287.832 7.336 287.412 8.164 287.412 9.664V13H286.356ZM300.307 13.12C298.471 13.12 297.211 11.98 297.211 9.832C297.211 7.72 298.351 6.448 300.055 6.448C301.699 6.448 302.707 7.6 302.707 9.352V9.988H298.303C298.339 11.44 299.071 12.22 300.355 12.22C301.171 12.22 301.747 12.064 302.419 11.776V12.7C301.759 12.988 301.183 13.12 300.307 13.12ZM298.327 9.148H301.603C301.603 8.056 301.111 7.312 300.043 7.312C299.035 7.312 298.435 7.996 298.327 9.148ZM303.696 14.896C305.016 13.276 305.712 11.296 305.712 9.28C305.712 7.228 305.028 5.212 303.684 3.592H304.68C306.12 5.152 306.78 7.18 306.78 9.292C306.78 11.38 306.12 13.384 304.68 14.896H303.696Z" fill="#E0E0E0"/>
<path d="M190.48 272.252V271.316H201.52V272.252H190.48ZM211.573 268.568V275H210.517V269.468H207.193V275H206.137V268.568H211.573ZM219.217 271.772C219.217 272.308 219.145 272.784 219.001 273.2C218.865 273.608 218.665 273.956 218.401 274.244C218.145 274.532 217.829 274.752 217.453 274.904C217.085 275.048 216.673 275.12 216.217 275.12C215.793 275.12 215.401 275.048 215.041 274.904C214.681 274.752 214.369 274.532 214.105 274.244C213.841 273.956 213.633 273.608 213.481 273.2C213.337 272.784 213.265 272.308 213.265 271.772C213.265 271.06 213.385 270.46 213.625 269.972C213.865 269.476 214.209 269.1 214.657 268.844C215.105 268.58 215.637 268.448 216.253 268.448C216.837 268.448 217.349 268.58 217.789 268.844C218.237 269.1 218.585 269.476 218.833 269.972C219.089 270.46 219.217 271.06 219.217 271.772ZM214.357 271.772C214.357 272.276 214.421 272.716 214.549 273.092C214.685 273.46 214.893 273.744 215.173 273.944C215.453 274.144 215.809 274.244 216.241 274.244C216.673 274.244 217.029 274.144 217.309 273.944C217.589 273.744 217.793 273.46 217.921 273.092C218.057 272.716 218.125 272.276 218.125 271.772C218.125 271.26 218.057 270.824 217.921 270.464C217.785 270.104 217.577 269.828 217.297 269.636C217.025 269.436 216.669 269.336 216.229 269.336C215.573 269.336 215.097 269.552 214.801 269.984C214.505 270.416 214.357 271.012 214.357 271.772ZM225.787 275H224.719V269.444H222.823C222.743 270.46 222.643 271.328 222.523 272.048C222.403 272.76 222.251 273.34 222.067 273.788C221.883 274.236 221.663 274.564 221.407 274.772C221.151 274.98 220.851 275.084 220.507 275.084C220.403 275.084 220.299 275.076 220.195 275.06C220.099 275.052 220.019 275.032 219.955 275V274.208C220.003 274.224 220.055 274.236 220.111 274.244C220.167 274.252 220.223 274.256 220.279 274.256C220.455 274.256 220.615 274.184 220.759 274.04C220.903 273.896 221.031 273.676 221.143 273.38C221.263 273.084 221.371 272.712 221.467 272.264C221.563 271.808 221.647 271.272 221.719 270.656C221.791 270.04 221.855 269.344 221.911 268.568H225.787V275ZM230.313 268.448C230.865 268.448 231.337 268.568 231.729 268.808C232.129 269.048 232.433 269.388 232.641 269.828C232.857 270.26 232.965 270.768 232.965 271.352V271.988H228.561C228.577 272.716 228.761 273.272 229.113 273.656C229.473 274.032 229.973 274.22 230.613 274.22C231.021 274.22 231.381 274.184 231.693 274.112C232.013 274.032 232.341 273.92 232.677 273.776V274.7C232.349 274.844 232.025 274.948 231.705 275.012C231.385 275.084 231.005 275.12 230.565 275.12C229.957 275.12 229.417 274.996 228.945 274.748C228.481 274.5 228.117 274.132 227.853 273.644C227.597 273.148 227.469 272.544 227.469 271.832C227.469 271.128 227.585 270.524 227.817 270.02C228.057 269.516 228.389 269.128 228.813 268.856C229.245 268.584 229.745 268.448 230.313 268.448ZM230.301 269.312C229.797 269.312 229.397 269.476 229.101 269.804C228.813 270.124 228.641 270.572 228.585 271.148H231.861C231.861 270.78 231.805 270.46 231.693 270.188C231.581 269.916 231.409 269.704 231.177 269.552C230.953 269.392 230.661 269.312 230.301 269.312ZM239.279 276.896C237.839 275.384 237.179 273.38 237.179 271.292C237.179 269.18 237.839 267.152 239.279 265.592H240.275C238.931 267.212 238.247 269.228 238.247 271.28C238.247 273.296 238.943 275.276 240.263 276.896H239.279ZM241.945 275V269.384H240.817V268.892L241.945 268.532V268.16C241.945 266.504 242.713 265.82 244.033 265.82C244.537 265.82 244.969 265.928 245.281 266.036L245.005 266.864C244.741 266.78 244.393 266.684 244.045 266.684C243.337 266.684 243.001 267.14 243.001 268.148V268.568H244.621V269.384H243.001V275H241.945ZM246.322 267.5C245.974 267.5 245.698 267.284 245.698 266.828C245.698 266.36 245.974 266.156 246.322 266.156C246.646 266.156 246.934 266.36 246.934 266.828C246.934 267.284 246.646 267.5 246.322 267.5ZM245.782 275V268.568H246.838V275H245.782ZM251.611 275.12C249.775 275.12 248.515 273.98 248.515 271.832C248.515 269.72 249.655 268.448 251.359 268.448C253.003 268.448 254.011 269.6 254.011 271.352V271.988H249.607C249.643 273.44 250.375 274.22 251.659 274.22C252.475 274.22 253.051 274.064 253.723 273.776V274.7C253.063 274.988 252.487 275.12 251.611 275.12ZM249.631 271.148H252.907C252.907 270.056 252.415 269.312 251.347 269.312C250.339 269.312 249.739 269.996 249.631 271.148ZM255.649 275V265.88H256.705V275H255.649ZM261.023 275.12C259.427 275.12 258.383 274.004 258.383 271.796C258.383 269.588 259.439 268.448 261.035 268.448C262.031 268.448 262.631 268.868 263.027 269.396H263.099C263.075 269.192 263.027 268.688 263.027 268.448V265.88H264.083V275H263.231L263.075 274.136H263.027C262.643 274.688 262.031 275.12 261.023 275.12ZM261.191 274.244C262.547 274.244 263.039 273.5 263.039 272V271.808C263.039 270.212 262.607 269.324 261.179 269.324C260.039 269.324 259.475 270.296 259.475 271.82C259.475 273.356 260.039 274.244 261.191 274.244ZM265.477 276.896C266.797 275.276 267.493 273.296 267.493 271.28C267.493 269.228 266.809 267.212 265.465 265.592H266.461C267.901 267.152 268.561 269.18 268.561 271.292C268.561 273.38 267.901 275.384 266.461 276.896H265.477Z" fill="#E0E0E0"/>
<path d="M378.48 159.252V158.316H389.52V159.252H378.48ZM398.577 156.456H396.477V162H395.433V156.456H393.357V155.568H398.577V156.456ZM402.211 155.448C402.763 155.448 403.235 155.568 403.627 155.808C404.027 156.048 404.331 156.388 404.539 156.828C404.755 157.26 404.863 157.768 404.863 158.352V158.988H400.459C400.475 159.716 400.659 160.272 401.011 160.656C401.371 161.032 401.871 161.22 402.511 161.22C402.919 161.22 403.279 161.184 403.591 161.112C403.911 161.032 404.239 160.92 404.575 160.776V161.7C404.247 161.844 403.923 161.948 403.603 162.012C403.283 162.084 402.903 162.12 402.463 162.12C401.855 162.12 401.315 161.996 400.843 161.748C400.379 161.5 400.015 161.132 399.751 160.644C399.495 160.148 399.367 159.544 399.367 158.832C399.367 158.128 399.483 157.524 399.715 157.02C399.955 156.516 400.287 156.128 400.711 155.856C401.143 155.584 401.643 155.448 402.211 155.448ZM402.199 156.312C401.695 156.312 401.295 156.476 400.999 156.804C400.711 157.124 400.539 157.572 400.483 158.148H403.759C403.759 157.78 403.703 157.46 403.591 157.188C403.479 156.916 403.307 156.704 403.075 156.552C402.851 156.392 402.559 156.312 402.199 156.312ZM411.396 162H410.328V156.444H408.432C408.352 157.46 408.252 158.328 408.132 159.048C408.012 159.76 407.86 160.34 407.676 160.788C407.492 161.236 407.272 161.564 407.016 161.772C406.76 161.98 406.46 162.084 406.116 162.084C406.012 162.084 405.908 162.076 405.804 162.06C405.708 162.052 405.628 162.032 405.564 162V161.208C405.612 161.224 405.664 161.236 405.72 161.244C405.776 161.252 405.832 161.256 405.888 161.256C406.064 161.256 406.224 161.184 406.368 161.04C406.512 160.896 406.64 160.676 406.752 160.38C406.872 160.084 406.98 159.712 407.076 159.264C407.172 158.808 407.256 158.272 407.328 157.656C407.4 157.04 407.464 156.344 407.52 155.568H411.396V162ZM419.03 158.772C419.03 159.308 418.958 159.784 418.814 160.2C418.678 160.608 418.478 160.956 418.214 161.244C417.958 161.532 417.642 161.752 417.266 161.904C416.898 162.048 416.486 162.12 416.03 162.12C415.606 162.12 415.214 162.048 414.854 161.904C414.494 161.752 414.182 161.532 413.918 161.244C413.654 160.956 413.446 160.608 413.294 160.2C413.15 159.784 413.078 159.308 413.078 158.772C413.078 158.06 413.198 157.46 413.438 156.972C413.678 156.476 414.022 156.1 414.47 155.844C414.918 155.58 415.45 155.448 416.066 155.448C416.65 155.448 417.162 155.58 417.602 155.844C418.05 156.1 418.398 156.476 418.646 156.972C418.902 157.46 419.03 158.06 419.03 158.772ZM414.17 158.772C414.17 159.276 414.234 159.716 414.362 160.092C414.498 160.46 414.706 160.744 414.986 160.944C415.266 161.144 415.622 161.244 416.054 161.244C416.486 161.244 416.842 161.144 417.122 160.944C417.402 160.744 417.606 160.46 417.734 160.092C417.87 159.716 417.938 159.276 417.938 158.772C417.938 158.26 417.87 157.824 417.734 157.464C417.598 157.104 417.39 156.828 417.11 156.636C416.838 156.436 416.482 156.336 416.042 156.336C415.386 156.336 414.91 156.552 414.614 156.984C414.318 157.416 414.17 158.012 414.17 158.772ZM425.381 163.896C423.941 162.384 423.281 160.38 423.281 158.292C423.281 156.18 423.941 154.152 425.381 152.592H426.377C425.033 154.212 424.349 156.228 424.349 158.28C424.349 160.296 425.045 162.276 426.365 163.896H425.381ZM430.806 162.12C429.798 162.12 429.174 161.7 428.814 161.184H428.73L428.514 162H427.758V152.88H428.814V155.1C428.814 155.64 428.778 156.156 428.754 156.42H428.814C429.174 155.88 429.798 155.46 430.806 155.46C432.402 155.46 433.458 156.576 433.458 158.784C433.458 160.992 432.39 162.12 430.806 162.12ZM430.65 161.244C431.802 161.244 432.366 160.368 432.366 158.772C432.366 157.152 431.802 156.336 430.626 156.336C429.258 156.336 428.814 157.104 428.814 158.748V158.796C428.814 160.38 429.234 161.244 430.65 161.244ZM437.721 162.12C436.017 162.12 434.769 160.908 434.769 158.772C434.769 156.648 435.909 155.448 437.757 155.448C439.497 155.448 440.721 156.648 440.721 158.772C440.721 160.908 439.557 162.12 437.721 162.12ZM437.745 161.244C439.041 161.244 439.629 160.296 439.629 158.772C439.629 157.248 439.041 156.336 437.733 156.336C436.425 156.336 435.861 157.248 435.861 158.772C435.861 160.296 436.437 161.244 437.745 161.244ZM444.675 162.12C443.079 162.12 442.035 161.004 442.035 158.796C442.035 156.588 443.091 155.448 444.687 155.448C445.683 155.448 446.283 155.868 446.679 156.396H446.751C446.727 156.192 446.679 155.688 446.679 155.448V152.88H447.735V162H446.883L446.727 161.136H446.679C446.295 161.688 445.683 162.12 444.675 162.12ZM444.843 161.244C446.199 161.244 446.691 160.5 446.691 159V158.808C446.691 157.212 446.259 156.324 444.831 156.324C443.691 156.324 443.127 157.296 443.127 158.82C443.127 160.356 443.691 161.244 444.843 161.244ZM449.766 164.88C449.382 164.88 449.094 164.832 448.89 164.784V163.944C449.058 163.98 449.322 164.016 449.598 164.016C450.33 164.016 450.75 163.56 451.026 162.876L451.362 162.024L448.77 155.568H449.898L451.29 159.228C451.53 159.876 451.734 160.452 451.83 160.98H451.878C451.974 160.584 452.19 159.876 452.43 159.216L453.738 155.568H454.878L452.106 162.888C451.65 164.1 451.014 164.88 449.766 164.88ZM455.247 163.896C456.567 162.276 457.263 160.296 457.263 158.28C457.263 156.228 456.579 154.212 455.235 152.592H456.231C457.671 154.152 458.331 156.18 458.331 158.292C458.331 160.38 457.671 162.384 456.231 163.896H455.247Z" fill="#E0E0E0"/>
<rect x="228.5" y="130.5" width="53" height="53" stroke="#E0E0E0"/>
<path d="M239.822 163.896C238.382 162.384 237.722 160.38 237.722 158.292C237.722 156.18 238.382 154.152 239.822 152.592H240.818C239.474 154.212 238.79 156.228 238.79 158.28C238.79 160.296 239.486 162.276 240.806 163.896H239.822ZM241.179 162L244.527 153.396H245.499L248.835 162H247.719L246.687 159.348H243.291L242.271 162H241.179ZM243.651 158.388H246.363L245.403 155.796C245.331 155.604 245.079 154.812 244.995 154.512C244.875 155.004 244.719 155.52 244.623 155.796L243.651 158.388ZM250.579 164.072C250.039 164.072 249.592 164 249.167 163.791V163.201C249.599 163.417 250.125 163.539 250.586 163.539C251.507 163.539 251.889 163.158 251.889 162.524C251.889 161.883 251.356 161.617 250.449 161.617H249.952V161.077H250.456C251.299 161.077 251.745 160.688 251.745 160.105C251.745 159.608 251.385 159.32 250.809 159.32C250.255 159.32 249.895 159.5 249.513 159.752L249.196 159.32C249.563 159.032 250.111 158.787 250.802 158.787C251.875 158.787 252.393 159.327 252.393 160.062C252.393 160.753 251.975 161.163 251.327 161.293V161.322C252.148 161.422 252.551 161.862 252.551 162.538C252.551 163.438 251.939 164.072 250.579 164.072ZM253.672 163.548C253.9 162.636 254.152 161.448 254.272 160.608H255.4L255.484 160.74C255.268 161.592 254.836 162.684 254.452 163.548H253.672ZM258.827 162L256.391 155.568H257.519L258.887 159.36C259.079 159.888 259.331 160.668 259.403 161.064H259.451C259.535 160.668 259.811 159.876 259.991 159.36L261.359 155.568H262.487L260.039 162H258.827ZM264.22 164.072C263.68 164.072 263.233 164 262.808 163.791V163.201C263.24 163.417 263.766 163.539 264.227 163.539C265.148 163.539 265.53 163.158 265.53 162.524C265.53 161.883 264.997 161.617 264.09 161.617H263.593V161.077H264.097C264.94 161.077 265.386 160.688 265.386 160.105C265.386 159.608 265.026 159.32 264.45 159.32C263.896 159.32 263.536 159.5 263.154 159.752L262.837 159.32C263.204 159.032 263.752 158.787 264.443 158.787C265.516 158.787 266.034 159.327 266.034 160.062C266.034 160.753 265.616 161.163 264.968 161.293V161.322C265.789 161.422 266.192 161.862 266.192 162.538C266.192 163.438 265.58 164.072 264.22 164.072ZM267.193 163.896C268.513 162.276 269.209 160.296 269.209 158.28C269.209 156.228 268.525 154.212 267.181 152.592H268.177C269.617 154.152 270.277 156.18 270.277 158.292C270.277 160.38 269.617 162.384 268.177 163.896H267.193Z" fill="#E0E0E0"/>
<rect x="281.5" y="130.5" width="53" height="53" stroke="#E0E0E0"/>
<path d="M292.822 163.896C291.382 162.384 290.722 160.38 290.722 158.292C290.722 156.18 291.382 154.152 292.822 152.592H293.818C292.474 154.212 291.79 156.228 291.79 158.28C291.79 160.296 292.486 162.276 293.806 163.896H292.822ZM294.179 162L297.527 153.396H298.499L301.835 162H300.719L299.687 159.348H296.291L295.271 162H294.179ZM296.651 158.388H299.363L298.403 155.796C298.331 155.604 298.079 154.812 297.995 154.512C297.875 155.004 297.719 155.52 297.623 155.796L296.651 158.388ZM304.457 164V162.834H301.995V162.294L304.414 158.83H305.069V162.265H305.818V162.834H305.069V164H304.457ZM302.614 162.265H304.457V160.645C304.457 160.148 304.471 159.824 304.493 159.507H304.464C304.385 159.687 304.255 159.925 304.155 160.069L302.614 162.265ZM306.672 163.548C306.9 162.636 307.152 161.448 307.272 160.608H308.4L308.484 160.74C308.268 161.592 307.836 162.684 307.452 163.548H306.672ZM311.827 162L309.391 155.568H310.519L311.887 159.36C312.079 159.888 312.331 160.668 312.403 161.064H312.451C312.535 160.668 312.811 159.876 312.991 159.36L314.359 155.568H315.487L313.039 162H311.827ZM318.098 164V162.834H315.636V162.294L318.055 158.83H318.71V162.265H319.459V162.834H318.71V164H318.098ZM316.255 162.265H318.098V160.645C318.098 160.148 318.112 159.824 318.134 159.507H318.105C318.026 159.687 317.896 159.925 317.796 160.069L316.255 162.265ZM320.193 163.896C321.513 162.276 322.209 160.296 322.209 158.28C322.209 156.228 321.525 154.212 320.181 152.592H321.177C322.617 154.152 323.277 156.18 323.277 158.292C323.277 160.38 322.617 162.384 321.177 163.896H320.193Z" fill="#E0E0E0"/>
<rect x="228.5" y="183.5" width="53" height="53" stroke="#E0E0E0"/>
<path d="M239.822 216.896C238.382 215.384 237.722 213.38 237.722 211.292C237.722 209.18 238.382 207.152 239.822 205.592H240.818C239.474 207.212 238.79 209.228 238.79 211.28C238.79 213.296 239.486 215.276 240.806 216.896H239.822ZM241.179 215L244.527 206.396H245.499L248.835 215H247.719L246.687 212.348H243.291L242.271 215H241.179ZM243.651 211.388H246.363L245.403 208.796C245.331 208.604 245.079 207.812 244.995 207.512C244.875 208.004 244.719 208.52 244.623 208.796L243.651 211.388ZM250.579 217.072C250.039 217.072 249.592 217 249.167 216.791V216.201C249.599 216.417 250.125 216.539 250.586 216.539C251.507 216.539 251.889 216.158 251.889 215.524C251.889 214.883 251.356 214.617 250.449 214.617H249.952V214.077H250.456C251.299 214.077 251.745 213.688 251.745 213.105C251.745 212.608 251.385 212.32 250.809 212.32C250.255 212.32 249.895 212.5 249.513 212.752L249.196 212.32C249.563 212.032 250.111 211.787 250.802 211.787C251.875 211.787 252.393 212.327 252.393 213.062C252.393 213.753 251.975 214.163 251.327 214.293V214.322C252.148 214.422 252.551 214.862 252.551 215.538C252.551 216.438 251.939 217.072 250.579 217.072ZM253.672 216.548C253.9 215.636 254.152 214.448 254.272 213.608H255.4L255.484 213.74C255.268 214.592 254.836 215.684 254.452 216.548H253.672ZM258.827 215L256.391 208.568H257.519L258.887 212.36C259.079 212.888 259.331 213.668 259.403 214.064H259.451C259.535 213.668 259.811 212.876 259.991 212.36L261.359 208.568H262.487L260.039 215H258.827ZM264.22 217.072C263.68 217.072 263.233 217 262.808 216.791V216.201C263.24 216.417 263.766 216.539 264.227 216.539C265.148 216.539 265.53 216.158 265.53 215.524C265.53 214.883 264.997 214.617 264.09 214.617H263.593V214.077H264.097C264.94 214.077 265.386 213.688 265.386 213.105C265.386 212.608 265.026 212.32 264.45 212.32C263.896 212.32 263.536 212.5 263.154 212.752L262.837 212.32C263.204 212.032 263.752 211.787 264.443 211.787C265.516 211.787 266.034 212.327 266.034 213.062C266.034 213.753 265.616 214.163 264.968 214.293V214.322C265.789 214.422 266.192 214.862 266.192 215.538C266.192 216.438 265.58 217.072 264.22 217.072ZM267.193 216.896C268.513 215.276 269.209 213.296 269.209 211.28C269.209 209.228 268.525 207.212 267.181 205.592H268.177C269.617 207.152 270.277 209.18 270.277 211.292C270.277 213.38 269.617 215.384 268.177 216.896H267.193Z" fill="#E0E0E0"/>
<rect x="281.5" y="183.5" width="53" height="53" stroke="#E0E0E0"/>
<path d="M292.822 216.896C291.382 215.384 290.722 213.38 290.722 211.292C290.722 209.18 291.382 207.152 292.822 205.592H293.818C292.474 207.212 291.79 209.228 291.79 211.28C291.79 213.296 292.486 215.276 293.806 216.896H292.822ZM294.179 215L297.527 206.396H298.499L301.835 215H300.719L299.687 212.348H296.291L295.271 215H294.179ZM296.651 211.388H299.363L298.403 208.796C298.331 208.604 298.079 207.812 297.995 207.512C297.875 208.004 297.719 208.52 297.623 208.796L296.651 211.388ZM304.457 217V215.834H301.995V215.294L304.414 211.83H305.069V215.265H305.818V215.834H305.069V217H304.457ZM302.614 215.265H304.457V213.645C304.457 213.148 304.471 212.824 304.493 212.507H304.464C304.385 212.687 304.255 212.925 304.155 213.069L302.614 215.265ZM306.672 216.548C306.9 215.636 307.152 214.448 307.272 213.608H308.4L308.484 213.74C308.268 214.592 307.836 215.684 307.452 216.548H306.672ZM311.827 215L309.391 208.568H310.519L311.887 212.36C312.079 212.888 312.331 213.668 312.403 214.064H312.451C312.535 213.668 312.811 212.876 312.991 212.36L314.359 208.568H315.487L313.039 215H311.827ZM318.098 217V215.834H315.636V215.294L318.055 211.83H318.71V215.265H319.459V215.834H318.71V217H318.098ZM316.255 215.265H318.098V213.645C318.098 213.148 318.112 212.824 318.134 212.507H318.105C318.026 212.687 317.896 212.925 317.796 213.069L316.255 215.265ZM320.193 216.896C321.513 215.276 322.209 213.296 322.209 211.28C322.209 209.228 321.525 207.212 320.181 205.592H321.177C322.617 207.152 323.277 209.18 323.277 211.292C323.277 213.38 322.617 215.384 321.177 216.896H320.193Z" fill="#E0E0E0"/>
<rect x="122.5" y="130.5" width="53" height="53" stroke="#E0E0E0"/>
<path d="M133.822 163.896C132.382 162.384 131.722 160.38 131.722 158.292C131.722 156.18 132.382 154.152 133.822 152.592H134.818C133.474 154.212 132.79 156.228 132.79 158.28C132.79 160.296 133.486 162.276 134.806 163.896H133.822ZM135.179 162L138.527 153.396H139.499L142.835 162H141.719L140.687 159.348H137.291L136.271 162H135.179ZM137.651 158.388H140.363L139.403 155.796C139.331 155.604 139.079 154.812 138.995 154.512C138.875 155.004 138.719 155.52 138.623 155.796L137.651 158.388ZM144.78 164V160.407C144.78 159.997 144.787 159.795 144.809 159.522C144.658 159.666 144.55 159.759 144.363 159.918L143.815 160.364L143.484 159.939L144.874 158.859H145.399V164H144.78ZM147.672 163.548C147.9 162.636 148.152 161.448 148.272 160.608H149.4L149.484 160.74C149.268 161.592 148.836 162.684 148.452 163.548H147.672ZM152.827 162L150.391 155.568H151.519L152.887 159.36C153.079 159.888 153.331 160.668 153.403 161.064H153.451C153.535 160.668 153.811 159.876 153.991 159.36L155.359 155.568H156.487L154.039 162H152.827ZM158.421 164V160.407C158.421 159.997 158.428 159.795 158.45 159.522C158.299 159.666 158.191 159.759 158.004 159.918L157.456 160.364L157.125 159.939L158.515 158.859H159.04V164H158.421ZM161.193 163.896C162.513 162.276 163.209 160.296 163.209 158.28C163.209 156.228 162.525 154.212 161.181 152.592H162.177C163.617 154.152 164.277 156.18 164.277 158.292C164.277 160.38 163.617 162.384 162.177 163.896H161.193Z" fill="#E0E0E0"/>
<rect x="122.5" y="183.5" width="53" height="53" fill="#153614"/>
<rect x="122.5" y="183.5" width="53" height="53" stroke="#E0E0E0"/>
<path d="M133.822 216.896C132.382 215.384 131.722 213.38 131.722 211.292C131.722 209.18 132.382 207.152 133.822 205.592H134.818C133.474 207.212 132.79 209.228 132.79 211.28C132.79 213.296 133.486 215.276 134.806 216.896H133.822ZM135.179 215L138.527 206.396H139.499L142.835 215H141.719L140.687 212.348H137.291L136.271 215H135.179ZM137.651 211.388H140.363L139.403 208.796C139.331 208.604 139.079 207.812 138.995 207.512C138.875 208.004 138.719 208.52 138.623 208.796L137.651 211.388ZM144.78 217V213.407C144.78 212.997 144.787 212.795 144.809 212.522C144.658 212.666 144.55 212.759 144.363 212.918L143.815 213.364L143.484 212.939L144.874 211.859H145.399V217H144.78ZM147.672 216.548C147.9 215.636 148.152 214.448 148.272 213.608H149.4L149.484 213.74C149.268 214.592 148.836 215.684 148.452 216.548H147.672ZM152.827 215L150.391 208.568H151.519L152.887 212.36C153.079 212.888 153.331 213.668 153.403 214.064H153.451C153.535 213.668 153.811 212.876 153.991 212.36L155.359 208.568H156.487L154.039 215H152.827ZM158.421 217V213.407C158.421 212.997 158.428 212.795 158.45 212.522C158.299 212.666 158.191 212.759 158.004 212.918L157.456 213.364L157.125 212.939L158.515 211.859H159.04V217H158.421ZM161.193 216.896C162.513 215.276 163.209 213.296 163.209 211.28C163.209 209.228 162.525 207.212 161.181 205.592H162.177C163.617 207.152 164.277 209.18 164.277 211.292C164.277 213.38 163.617 215.384 162.177 216.896H161.193Z" fill="#E0E0E0"/>
<g clip-path="url(#clip0_1298_456)">
<path d="M124.667 131.75L126 131.75C127.473 131.75 128.667 134.209 128.667 137.247L128.667 151C128.667 153.75 130.667 156.5 130.667 156.5C130.667 156.5 128.667 159.25 128.667 162L128.667 175.75C128.667 177.209 128.386 178.608 127.886 179.639C127.386 180.671 126.707 181.25 126 181.25L124.667 181.25M116.667 131.75L115.333 131.75C113.86 131.75 112.667 134.208 112.667 137.247L112.667 151C112.667 153.75 110.667 156.5 110.667 156.5C110.667 156.5 112.667 159.25 112.667 162L112.667 175.75C112.667 177.209 112.948 178.608 113.448 179.639C113.948 180.671 114.626 181.25 115.333 181.25L116.667 181.25" stroke="#FF9900" stroke-linecap="round" stroke-linejoin="round"/>
</g>
<g clip-path="url(#clip1_1298_456)">
<path d="M124.667 183.9L126 183.9C127.473 183.9 128.667 186.493 128.667 189.697L128.667 204.2C128.667 207.1 130.667 210 130.667 210C130.667 210 128.667 212.9 128.667 215.8L128.667 230.3C128.667 231.838 128.386 233.313 127.886 234.401C127.386 235.489 126.707 236.1 126 236.1L124.667 236.1M116.667 183.9L115.333 183.9C113.86 183.9 112.667 186.493 112.667 189.697L112.667 204.2C112.667 207.1 110.667 210 110.667 210C110.667 210 112.667 212.9 112.667 215.8L112.667 230.3C112.667 231.838 112.948 233.313 113.448 234.401C113.948 235.489 114.626 236.1 115.333 236.1L116.667 236.1" stroke="#FF9900" stroke-linecap="round" stroke-linejoin="round"/>
</g>
<g clip-path="url(#clip2_1298_456)">
<path d="M124.667 77.9L126 77.9C127.473 77.9 128.667 80.4926 128.667 83.6971L128.667 98.2C128.667 101.1 130.667 104 130.667 104C130.667 104 128.667 106.9 128.667 109.8L128.667 124.3C128.667 125.838 128.386 127.313 127.886 128.401C127.386 129.489 126.707 130.1 126 130.1L124.667 130.1M116.667 77.9L115.333 77.9C113.86 77.9 112.667 80.4926 112.667 83.6971L112.667 98.2C112.667 101.1 110.667 104 110.667 104C110.667 104 112.667 106.9 112.667 109.8L112.667 124.3C112.667 125.838 112.948 127.313 113.448 128.401C113.948 129.489 114.626 130.1 115.333 130.1L116.667 130.1" stroke="#FF9900" stroke-linecap="round" stroke-linejoin="round"/>
</g>
<g clip-path="url(#clip3_1298_456)">
<path d="M334.036 236H332.776C331.383 236 330.255 228.202 330.255 218.564V174.944C330.255 166.222 328.364 157.5 328.364 157.5C328.364 157.5 330.255 148.778 330.255 140.056V96.4444C330.255 91.8179 330.52 87.3808 330.993 84.1094C331.466 80.8379 332.107 79 332.776 79H334.036M341.6 236H342.861C344.254 236 345.382 228.202 345.382 218.564V174.944C345.382 166.222 353 157.5 353 157.5C353 157.5 345.382 148.778 345.382 140.056V96.4444C345.382 91.8179 345.116 87.3808 344.643 84.1094C344.171 80.8379 343.529 79 342.861 79H341.6" stroke="#FF9900" stroke-linecap="round" stroke-linejoin="round"/>
</g>
<g clip-path="url(#clip4_1298_456)">
<path d="M333.333 76.15H332C330.527 76.15 329.333 73.6021 329.333 70.4528V56.2C329.333 53.35 327.333 50.5 327.333 50.5C327.333 50.5 329.333 47.65 329.333 44.8V30.55C329.333 29.0382 329.614 27.5884 330.114 26.5195C330.614 25.4505 331.293 24.85 332 24.85H333.333M341.333 76.15H342.667C344.14 76.15 345.333 73.6021 345.333 70.4528V56.2C345.333 53.35 347.333 50.5 347.333 50.5C347.333 50.5 345.333 47.65 345.333 44.8V30.55C345.333 29.0382 345.052 27.5884 344.552 26.5195C344.052 25.4505 343.374 24.85 342.667 24.85H341.333" stroke="#FF9900" stroke-linecap="round" stroke-linejoin="round"/>
</g>
<path d="M162.924 225.56C161.576 226.155 160.966 227.729 161.56 229.076C162.155 230.424 163.729 231.034 165.076 230.44C166.424 229.845 167.034 228.271 166.44 226.924C165.845 225.576 164.271 224.966 162.924 225.56ZM178.543 262.202C178.654 262.454 178.949 262.569 179.202 262.457C179.454 262.346 179.569 262.051 179.457 261.798L178.543 262.202ZM163.543 228.202L178.543 262.202L179.457 261.798L164.457 227.798L163.543 228.202Z" fill="#FF9900"/>
<path d="M91.4986 109.037C91.5192 108.762 91.3126 108.522 91.0372 108.501L86.5497 108.166C86.2743 108.146 86.0344 108.353 86.0139 108.628C85.9933 108.903 86.1999 109.143 86.4753 109.164L90.4642 109.461L90.1665 113.45C90.1459 113.726 90.3525 113.966 90.6279 113.986C90.9033 114.007 91.1432 113.8 91.1637 113.525L91.4986 109.037ZM54.6737 139.621C54.4645 139.801 54.4409 140.117 54.6211 140.326C54.8013 140.536 55.117 140.559 55.3263 140.379L54.6737 139.621ZM90.6737 108.621L54.6737 139.621L55.3263 140.379L91.3263 109.379L90.6737 108.621Z" fill="#FF9900"/>
<path d="M91.4986 206.963C91.5192 207.238 91.3126 207.478 91.0372 207.499L86.5497 207.834C86.2743 207.854 86.0344 207.647 86.0139 207.372C85.9933 207.097 86.1999 206.857 86.4753 206.836L90.4642 206.539L90.1665 202.55C90.1459 202.274 90.3525 202.034 90.6279 202.014C90.9033 201.993 91.1432 202.2 91.1637 202.475L91.4986 206.963ZM54.6737 176.379C54.4645 176.199 54.4409 175.883 54.6211 175.674C54.8013 175.464 55.117 175.441 55.3263 175.621L54.6737 176.379ZM90.6737 207.379L54.6737 176.379L55.3263 175.621L91.3263 206.621L90.6737 207.379Z" fill="#FF9900"/>
<path d="M89.3536 158.354C89.5488 158.158 89.5488 157.842 89.3536 157.646L86.1716 154.464C85.9763 154.269 85.6597 154.269 85.4645 154.464C85.2692 154.66 85.2692 154.976 85.4645 155.172L88.2929 158L85.4645 160.828C85.2692 161.024 85.2692 161.34 85.4645 161.536C85.6597 161.731 85.9763 161.731 86.1716 161.536L89.3536 158.354ZM55 157.5C54.7239 157.5 54.5 157.724 54.5 158C54.5 158.276 54.7239 158.5 55 158.5V157.5ZM89 157.5H55V158.5H89V157.5Z" fill="#FF9900"/>
<path d="M268.175 58.072C267.635 58.072 267.189 58 266.764 57.7912V57.2008C267.196 57.4168 267.721 57.5392 268.182 57.5392C269.104 57.5392 269.485 57.1576 269.485 56.524C269.485 55.8832 268.953 55.6168 268.045 55.6168H267.549V55.0768H268.053C268.895 55.0768 269.341 54.688 269.341 54.1048C269.341 53.608 268.981 53.32 268.405 53.32C267.851 53.32 267.491 53.5 267.109 53.752L266.793 53.32C267.16 53.032 267.707 52.7872 268.398 52.7872C269.471 52.7872 269.989 53.3272 269.989 54.0616C269.989 54.7528 269.572 55.1632 268.924 55.2928V55.3216C269.745 55.4224 270.148 55.8616 270.148 56.5384C270.148 57.4384 269.536 58.072 268.175 58.072Z" fill="#E0E0E0"/>
<path d="M322.053 58V56.8336H319.591V56.2936L322.01 52.8304H322.665V56.2648H323.414V56.8336H322.665V58H322.053ZM320.21 56.2648H322.053V54.6448C322.053 54.148 322.068 53.824 322.089 53.5072H322.061C321.981 53.6872 321.852 53.9248 321.751 54.0688L320.21 56.2648Z" fill="#E0E0E0"/>
<path d="M213.785 58V57.4744L215.132 56.1136C215.902 55.336 216.327 54.8896 216.327 54.1912C216.327 53.6296 215.96 53.3272 215.42 53.3272C214.916 53.3272 214.577 53.5072 214.181 53.8168L213.843 53.392C214.246 53.0536 214.765 52.7872 215.42 52.7872C216.377 52.7872 216.975 53.3056 216.975 54.1552C216.975 54.9616 216.442 55.5592 215.657 56.3368L214.585 57.3952V57.424H217.184V58H213.785Z" fill="#E0E0E0"/>
<path d="M367.489 157.991C367.357 157.991 367.291 157.931 367.291 157.81C367.291 157.601 367.462 157.391 367.803 157.182C367.891 157.127 368.408 156.924 369.354 156.572C370.301 156.22 370.939 155.895 371.269 155.598C371.599 155.323 371.764 154.949 371.764 154.476V154.36C371.764 154.217 371.731 154.069 371.665 153.915C371.599 153.76 371.45 153.601 371.219 153.436C370.988 153.271 370.686 153.172 370.312 153.139C369.805 153.139 369.371 153.265 369.008 153.518C368.645 153.771 368.281 154.179 367.918 154.74C367.181 155.763 366.521 157.419 365.938 159.708C365.784 160.313 365.58 160.962 365.327 161.655C364.909 162.634 364.623 163.207 364.469 163.372C364.326 163.537 364.128 163.68 363.875 163.801C363.622 163.922 363.413 163.988 363.248 163.999C363.083 164.01 363 163.944 363 163.801C363 163.746 363.066 163.592 363.198 163.339C363.33 163.086 363.512 162.673 363.743 162.101C363.974 161.529 364.166 160.907 364.32 160.236C364.573 159.246 364.804 158.206 365.014 157.116C365.223 156.027 365.377 155.174 365.476 154.558C365.575 153.942 365.624 153.584 365.624 153.485C365.624 153.474 365.619 153.469 365.608 153.469C365.586 153.469 365.525 153.496 365.426 153.551C365.327 153.606 365.206 153.661 365.063 153.716C364.92 153.771 364.777 153.81 364.634 153.832C364.436 153.832 364.337 153.771 364.337 153.65C364.337 153.452 364.507 153.238 364.849 153.007C364.959 152.941 365.294 152.765 365.855 152.479C366.416 152.193 366.758 152.044 366.879 152.033C366.989 152.011 367.055 152 367.077 152C367.253 152 367.341 152.066 367.341 152.198C367.341 152.275 367.302 152.594 367.225 153.155C367.148 153.716 367.093 154.047 367.06 154.146C367.06 154.179 367.11 154.14 367.209 154.03C367.748 153.447 368.38 152.968 369.107 152.594C369.833 152.22 370.592 152.028 371.384 152.017C372.078 152.017 372.589 152.187 372.919 152.528C373.249 152.869 373.42 153.276 373.431 153.749C373.431 154.19 373.288 154.608 373.002 155.004C372.716 155.4 372.397 155.736 372.045 156.011C371.747 156.253 371.329 156.522 370.79 156.819L370.576 156.918L370.79 157.001C371.472 157.232 371.978 157.584 372.309 158.057C372.639 158.53 372.809 159.047 372.82 159.609C372.82 160.401 372.534 161.138 371.962 161.82C371.39 162.502 370.669 163.036 369.8 163.421C368.931 163.806 368.05 163.999 367.159 163.999C366.323 163.999 365.63 163.724 365.08 163.174C364.926 163.02 364.86 162.899 364.882 162.81C364.926 162.623 365.102 162.431 365.41 162.233C365.718 162.035 366.004 161.936 366.268 161.936C366.334 161.936 366.422 161.98 366.532 162.068C366.642 162.156 366.758 162.266 366.879 162.398C367 162.53 367.192 162.634 367.456 162.711C367.72 162.788 368.023 162.838 368.364 162.86C369.233 162.86 369.943 162.607 370.493 162.101C370.933 161.628 371.153 161.05 371.153 160.368V160.17C371.153 159.972 371.109 159.757 371.021 159.526C370.933 159.295 370.785 159.058 370.576 158.816C370.367 158.574 370.064 158.365 369.668 158.189C369.272 158.013 368.799 157.931 368.248 157.942C368.083 157.942 367.924 157.947 367.77 157.958C367.616 157.969 367.522 157.98 367.489 157.991Z" fill="#E0E0E0"/>
<path d="M371.847 47.1857C371.649 47.1857 371.55 47.1307 371.55 47.0206C371.55 46.9876 371.567 46.8941 371.6 46.74C371.633 46.586 371.649 46.4484 371.649 46.3274C371.649 46.0633 371.572 45.8432 371.418 45.6671C371.275 45.5351 371.022 45.4195 370.659 45.3205C370.296 45.2215 369.9 45.1664 369.47 45.1554C369.074 45.1554 368.739 45.216 368.464 45.337C368.188 45.458 367.985 45.6231 367.853 45.8322C367.721 46.0413 367.627 46.2228 367.572 46.3769C367.517 46.5309 367.49 46.6905 367.49 46.8556C367.49 47.1527 367.561 47.4278 367.704 47.6809C367.847 47.934 368.062 48.1541 368.348 48.3411C368.634 48.5282 368.832 48.6547 368.942 48.7208C369.052 48.7868 369.223 48.8693 369.454 48.9684C369.74 49.1114 369.971 49.227 370.147 49.315C370.323 49.403 370.56 49.5461 370.857 49.7442C371.154 49.9422 371.38 50.1293 371.534 50.3054C371.688 50.4814 371.836 50.707 371.979 50.9821C372.122 51.2572 372.188 51.5378 372.177 51.8239C372.177 52.9023 371.572 53.8652 370.362 54.7125C369.151 55.5598 367.809 55.989 366.334 56C365.432 56 364.651 55.7634 363.99 55.2902C363.33 54.8171 363 54.2558 363 53.6066C363 52.9354 363.237 52.3631 363.71 51.89C364.183 51.4168 364.706 51.1582 365.278 51.1142C365.52 51.1142 365.641 51.1747 365.641 51.2957C365.641 51.3287 365.635 51.3563 365.624 51.3783C365.569 51.4993 365.498 51.6039 365.41 51.6919C365.322 51.7799 365.25 51.8459 365.195 51.89C365.14 51.934 365.058 51.9835 364.948 52.0385L364.799 52.121L364.75 52.3026C364.684 52.4787 364.651 52.6933 364.651 52.9464C364.673 53.3755 364.931 53.7992 365.426 54.2173C365.922 54.6355 366.62 54.8446 367.523 54.8446C368.425 54.8446 369.146 54.6355 369.685 54.2173C370.224 53.7992 370.499 53.249 370.51 52.5667V52.4512C370.51 51.6369 369.817 50.8996 368.431 50.2393C367.561 49.8322 366.967 49.4911 366.648 49.216C366.12 48.7538 365.856 48.2201 365.856 47.6149C365.856 46.9436 366.136 46.3164 366.697 45.7332C367.259 45.1499 367.886 44.7153 368.579 44.4292C369.272 44.1431 369.9 44 370.461 44C370.483 44 370.527 44 370.593 44C370.659 44 370.719 44.0055 370.774 44.0165C371.457 44.0165 372.045 44.1376 372.541 44.3796C373.036 44.6217 373.289 45.0179 373.3 45.5681C373.3 46.0523 373.184 46.4099 372.953 46.641C372.634 46.9601 372.265 47.1417 371.847 47.1857Z" fill="#E0E0E0"/>
<path d="M96.1061 206.654C96.0354 206.583 96 206.532 96 206.502C96 206.462 96.0152 206.381 96.0455 206.259C96.0758 206.138 96.1011 206.067 96.1213 206.047C96.1415 205.997 96.187 205.971 96.2577 205.971C96.3285 205.971 96.5862 205.966 97.0309 205.956H97.8344L98.1224 204.743C98.1527 204.632 98.1881 204.486 98.2285 204.304C98.269 204.122 98.3043 203.99 98.3346 203.91C98.365 203.829 98.3953 203.728 98.4256 203.606C98.4559 203.485 98.4964 203.399 98.5469 203.349C98.5974 203.298 98.648 203.238 98.6985 203.167C98.749 203.096 98.8198 203.051 98.9107 203.03C99.0017 203.01 99.0927 203 99.1836 203C99.3655 203.01 99.4919 203.066 99.5626 203.167C99.6334 203.268 99.6687 203.364 99.6687 203.455C99.6687 203.526 99.6233 203.763 99.5323 204.167C99.4413 204.572 99.3403 204.971 99.2291 205.365L99.0775 205.926C99.0775 205.946 99.3302 205.956 99.8355 205.956H100.609C100.679 206.027 100.715 206.083 100.715 206.123C100.715 206.345 100.649 206.522 100.518 206.654H98.8956L98.3498 208.852C97.9556 210.469 97.7586 211.338 97.7586 211.459C97.7586 211.884 97.895 212.096 98.1679 212.096C98.5216 212.096 98.8652 211.924 99.1988 211.581C99.5323 211.237 99.8001 210.813 100.002 210.307C100.022 210.247 100.048 210.211 100.078 210.201C100.108 210.191 100.184 210.181 100.305 210.171H100.366C100.518 210.171 100.593 210.211 100.593 210.292C100.593 210.322 100.578 210.383 100.548 210.474C100.497 210.636 100.407 210.828 100.275 211.05C100.144 211.272 99.9719 211.51 99.7597 211.763C99.5475 212.015 99.2897 212.227 98.9865 212.399C98.6833 212.571 98.3751 212.657 98.0618 212.657C97.7586 212.657 97.4705 212.581 97.1976 212.43C96.9248 212.278 96.7277 212.015 96.6064 211.641C96.5862 211.56 96.5761 211.424 96.5761 211.232V210.959L97.1067 208.837C97.4604 207.412 97.6423 206.694 97.6524 206.684C97.6524 206.664 97.3947 206.654 96.8793 206.654H96.1061Z" fill="#E0E0E0"/>
<path d="M102.546 209.802C102.353 209.802 102.203 209.741 102.096 209.619C101.989 209.498 101.931 209.341 101.924 209.148C101.924 208.755 102.096 208.405 102.439 208.098C102.782 207.79 103.196 207.637 103.682 207.637C103.932 207.637 104.089 207.64 104.154 207.647C104.682 207.733 105.086 207.922 105.365 208.215C105.643 208.508 105.786 208.826 105.794 209.169C105.794 209.541 105.672 209.902 105.429 210.252C105.186 210.602 104.85 210.856 104.422 211.013L104.389 211.034C104.389 211.041 104.422 211.052 104.486 211.066C104.55 211.081 104.654 211.113 104.797 211.163C104.94 211.213 105.075 211.288 105.204 211.388C105.79 211.767 106.083 212.267 106.083 212.889C106.083 213.453 105.861 213.946 105.418 214.368C104.975 214.789 104.414 215 103.736 215C103.164 215 102.671 214.846 102.257 214.539C101.842 214.232 101.635 213.842 101.635 213.371C101.635 213.171 101.699 213.01 101.828 212.889C101.956 212.767 102.117 212.703 102.31 212.696C102.51 212.696 102.675 212.76 102.803 212.889C102.932 213.017 102.996 213.178 102.996 213.371C102.996 213.449 102.985 213.521 102.964 213.585C102.943 213.65 102.918 213.707 102.889 213.757C102.86 213.807 102.821 213.85 102.771 213.885C102.721 213.921 102.678 213.95 102.642 213.971C102.607 213.992 102.571 214.007 102.535 214.014C102.5 214.021 102.471 214.032 102.449 214.046L102.407 214.057C102.771 214.378 103.214 214.539 103.736 214.539C104.129 214.539 104.425 214.35 104.625 213.971C104.747 213.735 104.807 213.374 104.807 212.889V212.674C104.807 211.995 104.579 211.542 104.122 211.313C104.014 211.27 103.796 211.245 103.468 211.238L103.018 211.227L102.985 211.206C102.971 211.184 102.964 211.127 102.964 211.034C102.964 210.906 102.993 210.841 103.05 210.841C103.25 210.841 103.457 210.823 103.671 210.788C103.914 210.752 104.136 210.602 104.336 210.338C104.536 210.073 104.636 209.673 104.636 209.137V209.051C104.636 208.644 104.511 208.362 104.261 208.205C104.104 208.105 103.936 208.055 103.757 208.055C103.528 208.055 103.318 208.094 103.125 208.173C102.932 208.251 102.796 208.333 102.717 208.419C102.639 208.505 102.6 208.548 102.6 208.548H102.632C102.653 208.555 102.682 208.562 102.717 208.569C102.753 208.576 102.789 208.594 102.825 208.623C102.86 208.651 102.903 208.676 102.953 208.698C103.003 208.719 103.039 208.758 103.06 208.816C103.082 208.873 103.11 208.926 103.146 208.976C103.182 209.026 103.193 209.098 103.178 209.191C103.178 209.348 103.128 209.487 103.028 209.609C102.928 209.73 102.767 209.795 102.546 209.802Z" fill="#E0E0E0"/>
<path d="M95.1082 155.727C95.0361 155.655 95 155.603 95 155.572C95 155.531 95.0155 155.448 95.0464 155.325C95.0773 155.201 95.1031 155.129 95.1237 155.108C95.1443 155.057 95.1907 155.031 95.2629 155.031C95.3351 155.031 95.5979 155.026 96.0515 155.015H96.8711L97.1649 153.778C97.1959 153.665 97.232 153.515 97.2732 153.33C97.3144 153.144 97.3505 153.01 97.3814 152.928C97.4124 152.845 97.4433 152.742 97.4742 152.619C97.5052 152.495 97.5464 152.407 97.5979 152.356C97.6495 152.304 97.701 152.242 97.7526 152.17C97.8041 152.098 97.8763 152.052 97.9691 152.031C98.0619 152.01 98.1546 152 98.2474 152C98.433 152.01 98.5619 152.067 98.634 152.17C98.7062 152.273 98.7423 152.371 98.7423 152.464C98.7423 152.536 98.6959 152.778 98.6031 153.191C98.5103 153.603 98.4072 154.01 98.2938 154.412L98.1392 154.985C98.1392 155.005 98.3969 155.015 98.9124 155.015H99.701C99.7732 155.088 99.8093 155.144 99.8093 155.186C99.8093 155.412 99.7423 155.593 99.6082 155.727H97.9536L97.3969 157.969C96.9948 159.619 96.7938 160.505 96.7938 160.629C96.7938 161.062 96.933 161.278 97.2113 161.278C97.5722 161.278 97.9227 161.103 98.2629 160.753C98.6031 160.402 98.8763 159.969 99.0825 159.454C99.1031 159.392 99.1289 159.356 99.1598 159.345C99.1907 159.335 99.268 159.325 99.3918 159.314H99.4536C99.6082 159.314 99.6856 159.356 99.6856 159.438C99.6856 159.469 99.6701 159.531 99.6392 159.624C99.5876 159.789 99.4948 159.985 99.3608 160.211C99.2268 160.438 99.0515 160.68 98.8351 160.938C98.6186 161.196 98.3557 161.412 98.0464 161.588C97.7371 161.763 97.4227 161.851 97.1031 161.851C96.7938 161.851 96.5 161.773 96.2216 161.619C95.9433 161.464 95.7423 161.196 95.6186 160.814C95.5979 160.732 95.5876 160.593 95.5876 160.397V160.119L96.1289 157.954C96.4897 156.5 96.6753 155.768 96.6856 155.758C96.6856 155.737 96.4227 155.727 95.8969 155.727H95.1082Z" fill="#E0E0E0"/>
<path d="M101.48 159.31C101.284 159.31 101.127 159.244 101.01 159.113C100.894 158.982 100.835 158.821 100.835 158.632C100.835 158.114 101.028 157.666 101.415 157.287C101.801 156.908 102.282 156.719 102.858 156.719C103.521 156.719 104.075 156.923 104.52 157.331C104.964 157.739 105.19 158.267 105.198 158.916C105.198 159.23 105.125 159.528 104.979 159.813C104.833 160.097 104.658 160.345 104.454 160.556C104.25 160.767 103.959 161.037 103.579 161.365C103.317 161.591 102.953 161.926 102.486 162.371L101.841 162.983L102.672 162.994C103.816 162.994 104.425 162.976 104.498 162.94C104.549 162.925 104.636 162.601 104.76 161.966V161.934H105.198V161.966C105.19 161.988 105.143 162.32 105.055 162.961C104.968 163.603 104.913 163.938 104.891 163.967V164H100.835V163.792V163.661C100.835 163.61 100.857 163.555 100.901 163.497C100.945 163.439 101.054 163.311 101.229 163.114C101.44 162.881 101.622 162.677 101.776 162.502C101.841 162.429 101.965 162.294 102.147 162.098C102.329 161.901 102.453 161.766 102.519 161.693C102.585 161.62 102.69 161.5 102.836 161.332C102.982 161.165 103.084 161.041 103.142 160.961C103.2 160.88 103.284 160.771 103.394 160.633C103.503 160.494 103.579 160.378 103.623 160.283C103.667 160.188 103.722 160.082 103.787 159.966C103.853 159.849 103.9 159.732 103.929 159.616C103.959 159.499 103.984 159.39 104.006 159.288C104.028 159.186 104.039 159.066 104.039 158.927C104.039 158.468 103.915 158.071 103.667 157.735C103.419 157.4 103.066 157.232 102.606 157.232C102.366 157.232 102.155 157.294 101.972 157.418C101.79 157.542 101.663 157.663 101.59 157.779C101.517 157.896 101.48 157.965 101.48 157.987C101.48 157.994 101.499 157.998 101.535 157.998C101.666 157.998 101.801 158.049 101.94 158.151C102.078 158.253 102.147 158.421 102.147 158.654C102.147 158.836 102.089 158.989 101.972 159.113C101.856 159.237 101.692 159.302 101.48 159.31Z" fill="#E0E0E0"/>
<path d="M96.1082 100.727C96.0361 100.655 96 100.603 96 100.572C96 100.531 96.0155 100.448 96.0464 100.325C96.0773 100.201 96.1031 100.129 96.1237 100.108C96.1443 100.057 96.1907 100.031 96.2629 100.031C96.3351 100.031 96.5979 100.026 97.0515 100.015H97.8711L98.1649 98.7784C98.1959 98.665 98.232 98.5155 98.2732 98.3299C98.3144 98.1443 98.3505 98.0103 98.3814 97.9278C98.4124 97.8454 98.4433 97.7423 98.4742 97.6186C98.5052 97.4949 98.5464 97.4072 98.5979 97.3557C98.6495 97.3041 98.701 97.2423 98.7526 97.1701C98.8041 97.0979 98.8763 97.0516 98.9691 97.0309C99.0619 97.0103 99.1546 97 99.2474 97C99.433 97.0103 99.5619 97.067 99.634 97.1701C99.7062 97.2732 99.7423 97.3711 99.7423 97.4639C99.7423 97.5361 99.6959 97.7784 99.6031 98.1907C99.5103 98.6031 99.4072 99.0103 99.2938 99.4124L99.1392 99.9845C99.1392 100.005 99.3969 100.015 99.9124 100.015H100.701C100.773 100.088 100.809 100.144 100.809 100.186C100.809 100.412 100.742 100.593 100.608 100.727H98.9536L98.3969 102.969C97.9948 104.619 97.7938 105.505 97.7938 105.629C97.7938 106.062 97.933 106.278 98.2113 106.278C98.5722 106.278 98.9227 106.103 99.2629 105.753C99.6031 105.402 99.8763 104.969 100.082 104.454C100.103 104.392 100.129 104.356 100.16 104.345C100.191 104.335 100.268 104.325 100.392 104.314H100.454C100.608 104.314 100.686 104.356 100.686 104.438C100.686 104.469 100.67 104.531 100.639 104.624C100.588 104.789 100.495 104.985 100.361 105.211C100.227 105.438 100.052 105.68 99.8351 105.938C99.6186 106.196 99.3557 106.412 99.0464 106.588C98.7371 106.763 98.4227 106.851 98.1031 106.851C97.7938 106.851 97.5 106.773 97.2216 106.619C96.9433 106.464 96.7423 106.196 96.6186 105.814C96.5979 105.732 96.5876 105.593 96.5876 105.397V105.119L97.1289 102.954C97.4897 101.5 97.6753 100.768 97.6856 100.758C97.6856 100.737 97.4227 100.727 96.8969 100.727H96.1082Z" fill="#E0E0E0"/>
<path d="M103.617 102.681L103.475 102.735C103.373 102.772 103.227 102.808 103.038 102.845C102.848 102.881 102.637 102.907 102.404 102.921H102.196V102.418H102.404C102.746 102.404 103.063 102.349 103.355 102.254C103.647 102.16 103.851 102.072 103.967 101.992C104.084 101.912 104.186 101.832 104.273 101.751C104.288 101.73 104.332 101.719 104.405 101.719C104.47 101.719 104.532 101.74 104.59 101.784V105.053L104.601 108.333C104.652 108.384 104.696 108.417 104.733 108.431C104.769 108.446 104.856 108.461 104.995 108.475C105.133 108.49 105.359 108.497 105.673 108.497H105.957V109H105.837C105.684 108.978 105.104 108.967 104.098 108.967C103.107 108.967 102.535 108.978 102.382 109H102.251V108.497H102.535C102.695 108.497 102.834 108.497 102.95 108.497C103.067 108.497 103.158 108.493 103.224 108.486C103.289 108.479 103.348 108.468 103.399 108.453C103.45 108.439 103.479 108.431 103.486 108.431C103.493 108.431 103.515 108.413 103.552 108.377C103.588 108.34 103.61 108.326 103.617 108.333V102.681Z" fill="#E0E0E0"/>
<defs>
<clipPath id="clip0_1298_456">
<rect width="8" height="55" fill="white" transform="translate(118 184) rotate(-180)"/>
</clipPath>
<clipPath id="clip1_1298_456">
<rect width="8" height="58" fill="white" transform="translate(118 239) rotate(-180)"/>
</clipPath>
<clipPath id="clip2_1298_456">
<rect width="8" height="58" fill="white" transform="translate(118 133) rotate(-180)"/>
</clipPath>
<clipPath id="clip3_1298_456">
<rect width="15" height="175" fill="white" transform="translate(339 70)"/>
</clipPath>
<clipPath id="clip4_1298_456">
<rect width="8" height="57" fill="white" transform="translate(340 22)"/>
</clipPath>
</defs>
</svg>
